<svg xmlns="http://www.w3.org/2000/svg" xmlns:xlink="http://www.w3.org/1999/xlink" viewBox="0 0 2015 1301.04"><defs><style>.cls-1{opacity:0.19;fill:url(#linear-gradient);}.cls-2{opacity:0.11;fill:url(#linear-gradient-2);}.cls-3{fill:url(#linear-gradient-3);}.cls-4{fill:url(#linear-gradient-4);}.cls-14,.cls-16,.cls-5{fill:#fff;}.cls-5{opacity:0.43;}.cls-6{fill:url(#linear-gradient-5);}.cls-7{fill:url(#linear-gradient-6);}.cls-8{fill:url(#linear-gradient-7);}.cls-9{fill:url(#linear-gradient-8);}.cls-10{fill:url(#linear-gradient-9);}.cls-11{fill:url(#linear-gradient-10);}.cls-12{fill:url(#linear-gradient-11);}.cls-13{fill:url(#New_Gradient_Swatch_41);}.cls-14{opacity:0.27;}.cls-15{fill:url(#linear-gradient-12);}.cls-16{opacity:0.64;}.cls-17{fill:url(#linear-gradient-13);}.cls-18{fill:url(#linear-gradient-14);}.cls-19{fill:url(#linear-gradient-15);}.cls-20{fill:url(#linear-gradient-16);}.cls-21{fill:url(#linear-gradient-17);}.cls-22{fill:url(#linear-gradient-18);}.cls-23{fill:url(#linear-gradient-19);}.cls-24{opacity:0.76;}.cls-25{fill:url(#New_Gradient_Swatch_41-2);}.cls-26{fill:url(#New_Gradient_Swatch_41-3);}.cls-27{fill:url(#New_Gradient_Swatch_41-4);}.cls-28{fill:url(#linear-gradient-20);}.cls-29{fill:url(#linear-gradient-21);}.cls-30{fill:url(#linear-gradient-22);}.cls-31{fill:url(#linear-gradient-23);}.cls-32{fill:url(#linear-gradient-24);}.cls-33{fill:url(#linear-gradient-25);}.cls-34{fill:url(#linear-gradient-26);}.cls-35{fill:url(#linear-gradient-27);}.cls-36{fill:url(#linear-gradient-28);}.cls-37{fill:url(#New_Gradient_Swatch_41-5);}.cls-38{fill:url(#linear-gradient-29);}.cls-39{fill:url(#linear-gradient-30);}.cls-40{fill:url(#linear-gradient-31);}.cls-41{fill:url(#linear-gradient-32);}.cls-42{fill:url(#linear-gradient-33);}.cls-43{fill:url(#linear-gradient-34);}.cls-44{fill:url(#linear-gradient-35);}.cls-45{fill:url(#linear-gradient-36);}.cls-46{fill:url(#linear-gradient-37);}.cls-47{fill:url(#linear-gradient-38);}.cls-48{fill:url(#linear-gradient-39);}.cls-49{fill:url(#New_Gradient_Swatch_41-6);}.cls-50{fill:url(#linear-gradient-40);}.cls-51{fill:url(#linear-gradient-41);}.cls-52{fill:url(#linear-gradient-42);}.cls-53{fill:url(#linear-gradient-43);}.cls-54{fill:url(#linear-gradient-44);}.cls-55{fill:url(#linear-gradient-45);}.cls-56{fill:url(#linear-gradient-46);}.cls-57{fill:url(#linear-gradient-47);}.cls-58{fill:url(#linear-gradient-48);}.cls-59{fill:url(#linear-gradient-49);}.cls-60{fill:url(#linear-gradient-50);}.cls-61{fill:url(#New_Gradient_Swatch_41-7);}.cls-62{fill:url(#New_Gradient_Swatch_41-8);}.cls-63{fill:url(#linear-gradient-51);}.cls-64{fill:url(#linear-gradient-52);}.cls-65{fill:url(#linear-gradient-53);}.cls-66{fill:url(#linear-gradient-54);}.cls-67{fill:url(#linear-gradient-55);}.cls-68{fill:url(#linear-gradient-56);}.cls-69{fill:url(#linear-gradient-57);}.cls-70{fill:url(#linear-gradient-58);}.cls-71{fill:url(#linear-gradient-59);}.cls-72{fill:url(#linear-gradient-60);}.cls-73{fill:url(#linear-gradient-61);}.cls-74{fill:url(#New_Gradient_Swatch_41-9);}.cls-75{fill:url(#linear-gradient-62);}.cls-76{fill:url(#linear-gradient-63);}.cls-77{fill:url(#linear-gradient-64);}.cls-78{fill:url(#linear-gradient-65);}.cls-79{fill:url(#linear-gradient-66);}.cls-80{fill:url(#linear-gradient-67);}.cls-81{fill:url(#linear-gradient-68);}.cls-82{fill:url(#linear-gradient-69);}.cls-83{fill:url(#linear-gradient-70);}.cls-84{fill:url(#New_Gradient_Swatch_41-10);}.cls-85{fill:url(#_14);}.cls-86{fill:url(#linear-gradient-71);}.cls-87{fill:url(#linear-gradient-72);}.cls-88{fill:url(#linear-gradient-73);}.cls-89{fill:url(#linear-gradient-74);}.cls-90{fill:url(#linear-gradient-75);}.cls-91{fill:url(#linear-gradient-76);}.cls-92{fill:url(#linear-gradient-77);}.cls-93{fill:url(#linear-gradient-78);}.cls-94{fill:url(#linear-gradient-79);}.cls-95{fill:url(#New_Gradient_Swatch_41-11);}.cls-96{fill:url(#linear-gradient-80);}.cls-97{fill:url(#linear-gradient-81);}.cls-98{fill:url(#linear-gradient-82);}.cls-99{fill:url(#linear-gradient-83);}.cls-100{fill:url(#linear-gradient-84);}.cls-101{fill:url(#linear-gradient-85);}.cls-102{fill:url(#linear-gradient-86);}.cls-103{fill:url(#linear-gradient-87);}.cls-104{fill:url(#linear-gradient-88);}.cls-105{fill:url(#linear-gradient-89);}.cls-106{fill:url(#linear-gradient-90);}.cls-107{fill:url(#linear-gradient-91);}.cls-108{fill:url(#linear-gradient-92);}.cls-109{fill:url(#linear-gradient-93);}.cls-110{fill:url(#linear-gradient-94);}.cls-111{fill:url(#linear-gradient-95);}.cls-112{fill:url(#linear-gradient-96);}.cls-113{fill:url(#linear-gradient-97);}.cls-114{fill:url(#linear-gradient-98);}.cls-115{fill:url(#linear-gradient-99);}.cls-116{fill:url(#linear-gradient-100);}.cls-117{fill:url(#linear-gradient-101);}.cls-118{fill:url(#linear-gradient-102);}.cls-119{fill:url(#linear-gradient-103);}.cls-120{fill:url(#linear-gradient-104);}.cls-121{fill:url(#linear-gradient-105);}.cls-122{fill:url(#linear-gradient-106);}</style><linearGradient id="linear-gradient" x1="3313.41" y1="726.37" x2="576.39" y2="692.15" gradientUnits="userSpaceOnUse"><stop offset="0" stop-color="#b37cff"/><stop offset="1" stop-color="#f895e7"/></linearGradient><linearGradient id="linear-gradient-2" x1="3409.71" y1="689.41" x2="543.86" y2="653.58" xlink:href="#linear-gradient"/><linearGradient id="linear-gradient-3" x1="974.28" y1="1364.98" x2="999.86" y2="1104.78" gradientUnits="userSpaceOnUse"><stop offset="0" stop-color="#cb236d"/><stop offset="1" stop-color="#4c246d"/></linearGradient><linearGradient id="linear-gradient-4" x1="2585.81" y1="-943.81" x2="3133.79" y2="-943.81" gradientTransform="translate(604.15 3567.27) rotate(-63.76)" xlink:href="#linear-gradient-3"/><linearGradient id="linear-gradient-5" x1="1716.28" y1="608.27" x2="1125.16" y2="1355.23" gradientTransform="matrix(1.03, 0.05, 0.12, 0.88, 112.38, 122.21)" xlink:href="#linear-gradient-3"/><linearGradient id="linear-gradient-6" x1="824.91" y1="1205.98" x2="222.64" y2="1967.04" gradientTransform="translate(539.97 -382.49) rotate(-24.16)" xlink:href="#linear-gradient-3"/><linearGradient id="linear-gradient-7" x1="4936.31" y1="148.62" x2="4517.32" y2="542.01" gradientTransform="matrix(0, -1, -1, 0, 1827.9, 5034.68)" gradientUnits="userSpaceOnUse"><stop offset="0" stop-color="#fdf53f"/><stop offset="1" stop-color="#d93c65"/></linearGradient><linearGradient id="linear-gradient-8" x1="4703.75" y1="207.26" x2="4443.84" y2="436.82" gradientTransform="matrix(-1, -0.02, -0.02, 1, 5843, 63.84)" xlink:href="#linear-gradient-7"/><linearGradient id="linear-gradient-9" x1="4293.58" y1="544.43" x2="4015.47" y2="947.95" gradientTransform="matrix(-1, -0.02, -0.02, 1, 5843, 63.84)" xlink:href="#linear-gradient-7"/><linearGradient id="linear-gradient-10" x1="5134.73" y1="370.91" x2="4419.42" y2="378.99" gradientTransform="matrix(-1, -0.02, -0.02, 1, 5843, 63.84)" xlink:href="#linear-gradient-7"/><linearGradient id="linear-gradient-11" x1="4532.36" y1="333.06" x2="4214.42" y2="814.01" gradientTransform="matrix(-1, -0.02, -0.02, 1, 5843, 63.84)" xlink:href="#linear-gradient-7"/><linearGradient id="New_Gradient_Swatch_41" x1="-5997.17" y1="871.39" x2="-6053.12" y2="553.16" gradientTransform="translate(6641.9 2753.81) rotate(28.93)" gradientUnits="userSpaceOnUse"><stop offset="0" stop-color="#41a362"/><stop offset="1" stop-color="#204f2e"/></linearGradient><linearGradient id="linear-gradient-12" x1="-4012.29" y1="586.6" x2="-3821.02" y2="586.6" gradientTransform="translate(3312.68 -2858.48) rotate(-45.74)" gradientUnits="userSpaceOnUse"><stop offset="0" stop-color="#a737d5"/><stop offset="1" stop-color="#ef497a"/></linearGradient><linearGradient id="linear-gradient-13" x1="-3801.51" y1="446.8" x2="-3571.54" y2="446.8" gradientTransform="translate(3175.39 -2691.15) rotate(-49.38)" xlink:href="#linear-gradient-12"/><linearGradient id="linear-gradient-14" x1="-10346.6" y1="-5531.94" x2="-10310.09" y2="-5903.43" gradientTransform="matrix(0.47, 0.88, -0.88, 0.47, 1535.45, 12266.15)" gradientUnits="userSpaceOnUse"><stop offset="0" stop-color="#53d8ff"/><stop offset="1" stop-color="#3840f7"/></linearGradient><linearGradient id="linear-gradient-15" x1="-10284.02" y1="-5920.97" x2="-10363.39" y2="-5780.47" xlink:href="#linear-gradient-14"/><linearGradient id="linear-gradient-16" x1="-11281.5" y1="-3612.52" x2="-11258.73" y2="-3844.17" gradientTransform="matrix(0.29, 0.96, -0.96, 0.29, 1380.27, 12360.45)" xlink:href="#linear-gradient-14"/><linearGradient id="linear-gradient-17" x1="-11249.03" y1="-3855.15" x2="-11295.82" y2="-3772.34" gradientTransform="matrix(0.29, 0.96, -0.96, 0.29, 1380.27, 12360.45)" xlink:href="#linear-gradient-14"/><linearGradient id="linear-gradient-18" x1="-11591.21" y1="-4247.25" x2="-11564.15" y2="-4522.54" gradientTransform="translate(971.03 12827.56) rotate(72.52)" xlink:href="#linear-gradient-14"/><linearGradient id="linear-gradient-19" x1="-11544.83" y1="-4535.54" x2="-11603.66" y2="-4431.42" gradientTransform="translate(971.03 12827.56) rotate(72.52)" xlink:href="#linear-gradient-14"/><linearGradient id="New_Gradient_Swatch_41-2" x1="2256.9" y1="9741.06" x2="2434.34" y2="9741.06" gradientTransform="matrix(0.77, 0.64, -0.51, 0.61, 4783.84, -7145.41)" xlink:href="#New_Gradient_Swatch_41"/><linearGradient id="New_Gradient_Swatch_41-3" x1="-5532.5" y1="532.15" x2="-5588.46" y2="213.92" gradientTransform="matrix(0.68, 0.73, -0.73, 0.68, 5402.64, 4323.74)" xlink:href="#New_Gradient_Swatch_41"/><linearGradient id="New_Gradient_Swatch_41-4" x1="4282.08" y1="386.44" x2="4387.46" y2="607.39" gradientTransform="matrix(-1, -0.02, -0.02, 1, 5843, 63.84)" xlink:href="#New_Gradient_Swatch_41"/><linearGradient id="linear-gradient-20" x1="4102.03" y1="174.35" x2="4025.14" y2="312.94" gradientTransform="matrix(-0.95, -0.32, -0.32, 0.95, 5489.57, 1363.59)" xlink:href="#linear-gradient-14"/><linearGradient id="linear-gradient-21" x1="-12867.34" y1="-2805.27" x2="-12854.86" y2="-2932.23" gradientTransform="matrix(-0.99, -0.15, -0.15, 0.99, -11558.45, 1207.26)" xlink:href="#linear-gradient-7"/><linearGradient id="linear-gradient-22" x1="-12845.95" y1="-2938.23" x2="-12873.08" y2="-2890.21" gradientTransform="matrix(-0.99, -0.15, -0.15, 0.99, -11558.45, 1207.26)" xlink:href="#linear-gradient-7"/><linearGradient id="linear-gradient-23" x1="-13216.24" y1="-426.37" x2="-13208.46" y2="-505.54" gradientTransform="matrix(-1, 0.04, 0.04, 1, -11596.41, 1384.97)" xlink:href="#linear-gradient-7"/><linearGradient id="linear-gradient-24" x1="-13205.14" y1="-509.29" x2="-13221.13" y2="-480.99" gradientTransform="matrix(-1, 0.04, 0.04, 1, -11596.41, 1384.97)" xlink:href="#linear-gradient-7"/><linearGradient id="linear-gradient-25" x1="-13539.63" y1="-1060.04" x2="-13530.38" y2="-1154.12" gradientTransform="matrix(-1, 0.03, 0.03, 1, -11900.53, 1926.26)" xlink:href="#linear-gradient-7"/><linearGradient id="linear-gradient-26" x1="-13523.78" y1="-1158.56" x2="-13543.88" y2="-1122.98" gradientTransform="matrix(-1, 0.03, 0.03, 1, -11900.53, 1926.26)" xlink:href="#linear-gradient-7"/><linearGradient id="linear-gradient-27" x1="4077.5" y1="306.33" x2="3984.49" y2="383.68" gradientTransform="matrix(-0.95, -0.32, -0.32, 0.95, 5489.57, 1363.59)" xlink:href="#linear-gradient-14"/><linearGradient id="linear-gradient-28" x1="3942.83" y1="278.16" x2="3986.11" y2="372.09" gradientTransform="matrix(-0.95, -0.32, -0.32, 0.95, 5489.57, 1363.59)" xlink:href="#linear-gradient-14"/><linearGradient id="New_Gradient_Swatch_41-5" x1="4874.36" y1="308.45" x2="4979.75" y2="529.41" gradientTransform="matrix(-0.77, 0.64, 0.64, 0.77, 4946.79, -3045.14)" xlink:href="#New_Gradient_Swatch_41"/><linearGradient id="linear-gradient-29" x1="5035.26" y1="169.88" x2="4966.28" y2="294.2" gradientTransform="translate(-3521.3 -121.54) rotate(1.13)" xlink:href="#linear-gradient-14"/><linearGradient id="linear-gradient-30" x1="-12382.26" y1="-3016.01" x2="-12371.24" y2="-3128.09" gradientTransform="matrix(-0.97, -0.24, -0.24, 0.97, -11318.18, 275.25)" xlink:href="#linear-gradient-7"/><linearGradient id="linear-gradient-31" x1="-12362.69" y1="-3133.1" x2="-12388.65" y2="-3087.14" gradientTransform="matrix(-0.97, -0.24, -0.24, 0.97, -11318.18, 275.25)" xlink:href="#linear-gradient-7"/><linearGradient id="linear-gradient-32" x1="-12779.91" y1="-717.68" x2="-12772.47" y2="-793.44" gradientTransform="matrix(-1, -0.05, -0.05, 1, -11372, 449.58)" xlink:href="#linear-gradient-7"/><linearGradient id="linear-gradient-33" x1="-12769.3" y1="-797.03" x2="-12784.6" y2="-769.95" gradientTransform="matrix(-1, -0.05, -0.05, 1, -11372, 449.58)" xlink:href="#linear-gradient-7"/><linearGradient id="linear-gradient-34" x1="-13101.44" y1="-1347.34" x2="-13092.59" y2="-1437.38" gradientTransform="matrix(-1, -0.05, -0.05, 1, -11721.3, 961.89)" xlink:href="#linear-gradient-7"/><linearGradient id="linear-gradient-35" x1="-13086.27" y1="-1441.63" x2="-13105.51" y2="-1407.58" gradientTransform="matrix(-1, -0.05, -0.05, 1, -11721.3, 961.89)" xlink:href="#linear-gradient-7"/><linearGradient id="linear-gradient-36" x1="4751.56" y1="199.82" x2="4629.93" y2="308.8" gradientTransform="matrix(0.97, -0.26, 0.26, 0.97, -3132.35, 1253.79)" xlink:href="#linear-gradient-14"/><linearGradient id="linear-gradient-37" x1="5246.23" y1="358" x2="5188.97" y2="248.66" gradientTransform="matrix(0.97, 0.25, -0.25, 0.97, -3562.85, -1256.65)" xlink:href="#linear-gradient-14"/><linearGradient id="linear-gradient-38" x1="4711.63" y1="252.3" x2="4630.99" y2="376.99" gradientTransform="matrix(0.97, -0.26, 0.26, 0.97, -3132.35, 1253.79)" xlink:href="#linear-gradient-14"/><linearGradient id="linear-gradient-39" x1="5190.69" y1="210.43" x2="5110.06" y2="335.12" gradientTransform="matrix(0.97, 0.25, -0.25, 0.97, -3562.85, -1256.65)" xlink:href="#linear-gradient-14"/><linearGradient id="New_Gradient_Swatch_41-6" x1="4519.42" y1="349.9" x2="4624.8" y2="570.85" gradientTransform="matrix(-0.99, 0.11, 0.11, 0.99, 5948.86, -520.82)" xlink:href="#New_Gradient_Swatch_41"/><linearGradient id="linear-gradient-40" x1="1456.76" y1="303.24" x2="1467.59" y2="414.71" gradientTransform="matrix(1, 0, 0, 1, 0, 0)" xlink:href="#linear-gradient-14"/><linearGradient id="linear-gradient-41" x1="-11824.9" y1="-2705.76" x2="-11814.29" y2="-2813.71" gradientTransform="matrix(0.98, -0.2, 0.2, 0.98, 13617.66, 767.49)" xlink:href="#linear-gradient-7"/><linearGradient id="linear-gradient-42" x1="-11806.05" y1="-2818.54" x2="-11831.06" y2="-2774.27" gradientTransform="matrix(0.98, -0.2, 0.2, 0.98, 13617.66, 767.49)" xlink:href="#linear-gradient-7"/><linearGradient id="linear-gradient-43" x1="-12172.46" y1="-521.89" x2="-12165.29" y2="-594.86" gradientTransform="translate(13664.09 944) rotate(-0.34)" xlink:href="#linear-gradient-7"/><linearGradient id="linear-gradient-44" x1="-12162.23" y1="-598.32" x2="-12176.97" y2="-572.23" gradientTransform="translate(13664.09 944) rotate(-0.34)" xlink:href="#linear-gradient-7"/><linearGradient id="linear-gradient-45" x1="-12495.75" y1="-1147.41" x2="-12487.23" y2="-1234.13" gradientTransform="translate(13993.72 1469.1) rotate(-0.76)" xlink:href="#linear-gradient-7"/><linearGradient id="linear-gradient-46" x1="-12481.14" y1="-1238.22" x2="-12499.67" y2="-1205.43" gradientTransform="translate(13993.72 1469.1) rotate(-0.76)" xlink:href="#linear-gradient-7"/><linearGradient id="linear-gradient-47" x1="4145.82" y1="173.27" x2="4028.67" y2="278.24" gradientTransform="matrix(-0.96, -0.3, -0.3, 0.96, 5398.92, 1421.76)" xlink:href="#linear-gradient-14"/><linearGradient id="linear-gradient-48" x1="4383.61" y1="597.59" x2="4324.92" y2="489.81" gradientTransform="matrix(-1, -0.02, -0.02, 1, 5843, 63.84)" xlink:href="#linear-gradient-14"/><linearGradient id="linear-gradient-49" x1="4254.48" y1="1573.39" x2="4265.94" y2="1662.57" gradientTransform="matrix(-0.96, -0.3, -0.3, 0.96, 5398.92, 1421.76)" xlink:href="#linear-gradient-14"/><linearGradient id="linear-gradient-50" x1="1522.99" y1="425.7" x2="1535.73" y2="553.09" gradientTransform="matrix(1, 0, 0, 1, 0, 0)" xlink:href="#linear-gradient-14"/><linearGradient id="New_Gradient_Swatch_41-7" x1="-4453.14" y1="-264.86" x2="-4697.4" y2="-1137.84" gradientTransform="matrix(1.39, 0.04, -0.1, 1, 7335.81, 1042.93)" xlink:href="#New_Gradient_Swatch_41"/><linearGradient id="New_Gradient_Swatch_41-8" x1="4167.91" y1="-843.21" x2="4273.3" y2="-622.26" gradientTransform="matrix(0.36, -0.93, -0.93, -0.36, -1012.49, 4086.42)" xlink:href="#New_Gradient_Swatch_41"/><linearGradient id="linear-gradient-51" x1="1200.03" y1="90.98" x2="1128.69" y2="224.1" gradientTransform="matrix(1, 0, 0, 1, 0, 0)" xlink:href="#linear-gradient-14"/><linearGradient id="linear-gradient-52" x1="-12067.17" y1="-2976.96" x2="-12056.31" y2="-3087.54" gradientTransform="matrix(-0.97, -0.24, -0.24, 0.97, -11318.18, 275.25)" xlink:href="#linear-gradient-7"/><linearGradient id="linear-gradient-53" x1="-12047.87" y1="-3092.48" x2="-12073.48" y2="-3047.14" gradientTransform="matrix(-0.97, -0.24, -0.24, 0.97, -11318.18, 275.25)" xlink:href="#linear-gradient-7"/><linearGradient id="linear-gradient-54" x1="-12463.26" y1="-740.88" x2="-12455.91" y2="-815.63" gradientTransform="matrix(-1, -0.05, -0.05, 1, -11372, 449.58)" xlink:href="#linear-gradient-7"/><linearGradient id="linear-gradient-55" x1="-12452.78" y1="-819.17" x2="-12467.88" y2="-792.45" gradientTransform="matrix(-1, -0.05, -0.05, 1, -11372, 449.58)" xlink:href="#linear-gradient-7"/><linearGradient id="linear-gradient-56" x1="-12784.55" y1="-1368.16" x2="-12775.82" y2="-1456.99" gradientTransform="matrix(-1, -0.05, -0.05, 1, -11721.3, 961.89)" xlink:href="#linear-gradient-7"/><linearGradient id="linear-gradient-57" x1="-12769.58" y1="-1461.19" x2="-12788.56" y2="-1427.59" gradientTransform="matrix(-1, -0.05, -0.05, 1, -11721.3, 961.89)" xlink:href="#linear-gradient-7"/><linearGradient id="linear-gradient-58" x1="4500.36" y1="42.76" x2="4380.36" y2="150.28" gradientTransform="matrix(0.97, -0.26, 0.26, 0.97, -3132.35, 1253.79)" xlink:href="#linear-gradient-14"/><linearGradient id="linear-gradient-59" x1="4628.35" y1="444.21" x2="4726.25" y2="300.5" gradientTransform="matrix(-1, -0.02, -0.02, 1, 5843, 63.84)" xlink:href="#linear-gradient-14"/><linearGradient id="linear-gradient-60" x1="1207.33" y1="170.16" x2="1149.37" y2="275.26" gradientTransform="matrix(1, 0, 0, 1, 0, 0)" xlink:href="#linear-gradient-14"/><linearGradient id="linear-gradient-61" x1="1097.7" y1="181.34" x2="1035.27" y2="310.64" gradientTransform="matrix(1, 0, 0, 1, 0, 0)" xlink:href="#linear-gradient-14"/><linearGradient id="New_Gradient_Swatch_41-9" x1="4078.86" y1="-1001.63" x2="4184.25" y2="-780.68" gradientTransform="matrix(0.36, -0.93, -0.93, -0.36, -1012.49, 4086.42)" xlink:href="#New_Gradient_Swatch_41"/><linearGradient id="linear-gradient-62" x1="4843.15" y1="249.25" x2="4779.53" y2="363.92" gradientTransform="translate(-3521.3 -121.54) rotate(1.13)" xlink:href="#linear-gradient-14"/><linearGradient id="linear-gradient-63" x1="-12214.25" y1="-2871.54" x2="-12205.44" y2="-2961.09" gradientTransform="matrix(-0.97, -0.24, -0.24, 0.97, -11318.18, 275.25)" xlink:href="#linear-gradient-7"/><linearGradient id="linear-gradient-64" x1="-12198.61" y1="-2965.09" x2="-12219.35" y2="-2928.37" gradientTransform="matrix(-0.97, -0.24, -0.24, 0.97, -11318.18, 275.25)" xlink:href="#linear-gradient-7"/><linearGradient id="linear-gradient-65" x1="-12586.61" y1="-608.83" x2="-12580.67" y2="-669.35" gradientTransform="matrix(-1, -0.05, -0.05, 1, -11372, 449.58)" xlink:href="#linear-gradient-7"/><linearGradient id="linear-gradient-66" x1="-12578.13" y1="-672.22" x2="-12590.36" y2="-650.58" gradientTransform="matrix(-1, -0.05, -0.05, 1, -11372, 449.58)" xlink:href="#linear-gradient-7"/><linearGradient id="linear-gradient-67" x1="-12908" y1="-1235.58" x2="-12900.93" y2="-1307.51" gradientTransform="matrix(-1, -0.05, -0.05, 1, -11721.3, 961.89)" xlink:href="#linear-gradient-7"/><linearGradient id="linear-gradient-68" x1="-12895.88" y1="-1310.91" x2="-12911.25" y2="-1283.71" gradientTransform="matrix(-1, -0.05, -0.05, 1, -11721.3, 961.89)" xlink:href="#linear-gradient-7"/><linearGradient id="linear-gradient-69" x1="4513.25" y1="235.7" x2="4402.23" y2="335.18" gradientTransform="matrix(0.97, -0.26, 0.26, 0.97, -3132.35, 1253.79)" xlink:href="#linear-gradient-14"/><linearGradient id="linear-gradient-70" x1="4666.39" y1="337.42" x2="4593.66" y2="433.91" gradientTransform="matrix(-1, -0.02, -0.02, 1, 5843, 63.84)" xlink:href="#linear-gradient-14"/><linearGradient id="New_Gradient_Swatch_41-10" x1="4918.99" y1="144.43" x2="5024.38" y2="365.38" gradientTransform="matrix(0.71, -0.03, 0.05, 1.21, -2297.36, 389.35)" xlink:href="#New_Gradient_Swatch_41"/><linearGradient id="_14" x1="1318.25" y1="369.31" x2="1178.75" y2="431.73" gradientUnits="userSpaceOnUse"><stop offset="0" stop-color="#53d8ff"/><stop offset="0.68" stop-color="#4171fa"/><stop offset="1" stop-color="#3840f7"/></linearGradient><linearGradient id="linear-gradient-71" x1="-12094.89" y1="-2585.93" x2="-12086.89" y2="-2667.34" gradientTransform="matrix(1, 0.05, -0.05, 1, 13139.29, 3671.48)" xlink:href="#linear-gradient-7"/><linearGradient id="linear-gradient-72" x1="-12082.5" y1="-2671.76" x2="-12100.68" y2="-2639.58" gradientTransform="matrix(1, 0.05, -0.05, 1, 13139.29, 3671.48)" xlink:href="#linear-gradient-7"/><linearGradient id="linear-gradient-73" x1="-12413.56" y1="-359.03" x2="-12408.61" y2="-409.38" gradientTransform="matrix(0.97, 0.24, -0.24, 0.97, 13140.55, 3853.14)" xlink:href="#linear-gradient-7"/><linearGradient id="linear-gradient-74" x1="-12405.22" y1="-411.98" x2="-12416.49" y2="-392.05" gradientTransform="matrix(0.97, 0.24, -0.24, 0.97, 13140.55, 3853.14)" xlink:href="#linear-gradient-7"/><linearGradient id="linear-gradient-75" x1="-12736.49" y1="-983.65" x2="-12730.6" y2="-1043.52" gradientTransform="translate(13328.7 4444.27) rotate(13.62)" xlink:href="#linear-gradient-7"/><linearGradient id="linear-gradient-76" x1="-12725.18" y1="-1046.74" x2="-12739.45" y2="-1021.48" gradientTransform="translate(13328.7 4444.27) rotate(13.62)" xlink:href="#linear-gradient-7"/><linearGradient id="linear-gradient-77" x1="4142.55" y1="434.12" x2="4182.52" y2="520.87" gradientTransform="matrix(-0.89, -0.46, -0.46, 0.89, 5170.8, 1939.15)" xlink:href="#linear-gradient-14"/><linearGradient id="linear-gradient-78" x1="4272.69" y1="502.24" x2="4192.63" y2="568.83" gradientTransform="matrix(-0.89, -0.46, -0.46, 0.89, 5170.8, 1939.15)" xlink:href="#linear-gradient-14"/><linearGradient id="linear-gradient-79" x1="4503.77" y1="489.03" x2="4353.67" y2="617.17" gradientTransform="matrix(-0.96, -0.27, -0.27, 0.96, 5624.72, 1215.98)" xlink:href="#linear-gradient-14"/><linearGradient id="New_Gradient_Swatch_41-11" x1="5556.79" y1="242.7" x2="5662.18" y2="463.65" gradientTransform="translate(-4582.88 1000.88) rotate(-9.64)" xlink:href="#New_Gradient_Swatch_41"/><linearGradient id="linear-gradient-80" x1="992.41" y1="255.34" x2="978.4" y2="401.84" gradientTransform="matrix(1, 0, 0, 1, 0, 0)" xlink:href="#linear-gradient-14"/><linearGradient id="linear-gradient-81" x1="-12835.45" y1="-2932.74" x2="-12824.83" y2="-3040.7" gradientTransform="matrix(-1, 0.07, 0.07, 1, -11614.87, 4322.37)" xlink:href="#linear-gradient-7"/><linearGradient id="linear-gradient-82" x1="-12816.6" y1="-3045.52" x2="-12841.6" y2="-3001.26" gradientTransform="matrix(-1, 0.07, 0.07, 1, -11614.87, 4322.37)" xlink:href="#linear-gradient-7"/><linearGradient id="linear-gradient-83" x1="-13207.97" y1="-547.46" x2="-13200.8" y2="-620.43" gradientTransform="matrix(-0.96, 0.27, 0.27, 0.96, -11611.9, 4504.89)" xlink:href="#linear-gradient-7"/><linearGradient id="linear-gradient-84" x1="-13197.74" y1="-623.89" x2="-13212.48" y2="-597.8" gradientTransform="matrix(-0.96, 0.27, 0.27, 0.96, -11611.9, 4504.89)" xlink:href="#linear-gradient-7"/><linearGradient id="linear-gradient-85" x1="-13530.95" y1="-1179.68" x2="-13522.43" y2="-1266.4" gradientTransform="matrix(-0.97, 0.26, 0.26, 0.97, -11785.55, 5099.51)" xlink:href="#linear-gradient-7"/><linearGradient id="linear-gradient-86" x1="-13516.34" y1="-1270.5" x2="-13534.88" y2="-1237.7" gradientTransform="matrix(-0.97, 0.26, 0.26, 0.97, -11785.55, 5099.51)" xlink:href="#linear-gradient-7"/><linearGradient id="linear-gradient-87" x1="4804.11" y1="415.59" x2="4887.64" y2="545.83" gradientTransform="matrix(-1, -0.02, -0.02, 1, 5843, 63.84)" xlink:href="#linear-gradient-14"/><linearGradient id="linear-gradient-88" x1="879.2" y1="372.79" x2="963.92" y2="470.25" gradientTransform="matrix(1, 0, 0, 1, 0, 0)" xlink:href="#linear-gradient-14"/><linearGradient id="linear-gradient-89" x1="1044.01" y1="396.36" x2="940.18" y2="398.91" gradientTransform="matrix(1, 0, 0, 1, 0, 0)" xlink:href="#linear-gradient-14"/><linearGradient id="linear-gradient-90" x1="926.36" y1="435.74" x2="945.47" y2="377.14" gradientTransform="matrix(1, 0, 0, 1, 0, 0)" xlink:href="#linear-gradient-14"/><linearGradient id="linear-gradient-91" x1="5196.91" y1="339.12" x2="4848.41" y2="1170.16" gradientTransform="matrix(-1, -0.02, -0.02, 1, 5843, 63.84)" xlink:href="#linear-gradient-7"/><linearGradient id="linear-gradient-92" x1="5404.74" y1="393.89" x2="5019.43" y2="806.14" gradientTransform="matrix(-0.78, -0.62, -0.62, 0.78, 5001.22, 3365.35)" xlink:href="#linear-gradient-7"/><linearGradient id="linear-gradient-93" x1="5370.48" y1="444.68" x2="5173.12" y2="618.99" gradientTransform="matrix(-1, -0.02, -0.02, 1, 5843, 63.84)" xlink:href="#linear-gradient-7"/><linearGradient id="linear-gradient-94" x1="5343.05" y1="473.74" x2="4967.59" y2="749.5" gradientTransform="matrix(-0.78, -0.62, -0.62, 0.78, 5000.13, 3364.96)" xlink:href="#linear-gradient-7"/><linearGradient id="linear-gradient-95" x1="5758.32" y1="468.97" x2="5707.77" y2="517" gradientTransform="matrix(-0.8, 0.61, 0.61, 0.8, 4847.22, -3456.51)" xlink:href="#linear-gradient-7"/><linearGradient id="linear-gradient-96" x1="5802.16" y1="484" x2="5751.6" y2="532.02" gradientTransform="matrix(-0.8, 0.61, 0.61, 0.8, 4847.22, -3456.51)" xlink:href="#linear-gradient-7"/><linearGradient id="linear-gradient-97" x1="5912.43" y1="468.98" x2="5861.87" y2="517" gradientTransform="matrix(-0.8, 0.61, 0.61, 0.8, 4847.22, -3456.51)" xlink:href="#linear-gradient-7"/><linearGradient id="linear-gradient-98" x1="5833.6" y1="459.01" x2="5783.05" y2="507.04" gradientTransform="matrix(-0.8, 0.61, 0.61, 0.8, 4847.22, -3456.51)" xlink:href="#linear-gradient-7"/><linearGradient id="linear-gradient-99" x1="5796.25" y1="461.39" x2="5745.69" y2="509.41" gradientTransform="matrix(-0.8, 0.61, 0.61, 0.8, 4847.22, -3456.51)" xlink:href="#linear-gradient-7"/><linearGradient id="linear-gradient-100" x1="5777.64" y1="486.18" x2="5727.09" y2="534.21" gradientTransform="matrix(-0.8, 0.61, 0.61, 0.8, 4847.22, -3456.51)" xlink:href="#linear-gradient-7"/><linearGradient id="linear-gradient-101" x1="5853.32" y1="498.6" x2="5802.76" y2="546.62" gradientTransform="matrix(-0.8, 0.61, 0.61, 0.8, 4847.22, -3456.51)" xlink:href="#linear-gradient-7"/><linearGradient id="linear-gradient-102" x1="5835.78" y1="479.33" x2="5785.23" y2="527.35" gradientTransform="matrix(-0.8, 0.61, 0.61, 0.8, 4847.22, -3456.51)" xlink:href="#linear-gradient-7"/><linearGradient id="linear-gradient-103" x1="5874.08" y1="479.33" x2="5823.52" y2="527.36" gradientTransform="matrix(-0.8, 0.61, 0.61, 0.8, 4847.22, -3456.51)" xlink:href="#linear-gradient-7"/><linearGradient id="linear-gradient-104" x1="5876.67" y1="463.74" x2="5826.11" y2="511.76" gradientTransform="matrix(-0.8, 0.61, 0.61, 0.8, 4847.22, -3456.51)" xlink:href="#linear-gradient-7"/><linearGradient id="linear-gradient-105" x1="5897.35" y1="489.77" x2="5846.8" y2="537.79" gradientTransform="matrix(-0.8, 0.61, 0.61, 0.8, 4847.22, -3456.51)" xlink:href="#linear-gradient-7"/><linearGradient id="linear-gradient-106" x1="4837.87" y1="494.77" x2="4199.86" y2="1247.29" gradientTransform="matrix(-1, -0.02, -0.02, 1, 5843, 63.84)" xlink:href="#linear-gradient-7"/></defs><g id="Layer_2" data-name="Layer 2"><g id="Illustration"><path class="cls-1" d="M269.61,184.12C138.47,246.05,41.38,412.21,64.87,533.94c21.54,111.6,132.65,124.87,157.5,251.23,28.35,144.19-100.31,208.49-66.15,292.57,50.26,123.73,338.9,9.38,768.56,152.65,97.73,32.59,144.28,59,242.53,66.78,162.91,12.89,202.69-46.45,422.08-76.32,229.3-31.22,330.09,14,368.53-50.88,34.28-57.84-38.21-106.7-47.25-270.31-7.41-134.3,38.51-154.09,34.65-286.22-1.25-43-5.33-182.5-97.64-308.47-82.74-112.91-222.29-195.73-365.38-200.35C1273.59,97.88,1250,263.71,1028.72,314.51,695.76,391,511.14,70.06,269.61,184.12Z"/><path class="cls-2" d="M559,1250.93c257.15,26.34,277-67.59,551.49-33.24,171.15,21.41,213.9,64.22,395.1,63.71,121-.34,239.7-2.31,345.71-83.1,24.12-18.39,181.49-142.9,145.41-290.87-18.1-74.23-104.7-73.95-129-152.35-19.87-64.22,20.22-110.92,46.64-185.6,51-144.28,44-359.68-38.41-415.52-124.4-84.28-349.36,243-614.6,166.2C1150.28,288,1164,223,1017.22,140.11,770.81.85,421.17,8.18,347.75,142.88c-60.08,110.24,97.77,245.41,27.44,354.57C311.35,596.56,155.7,524.81,59.66,633.19c-82.23,92.8-72.26,262.93-13.72,374C152.53,1209.3,431.86,1237.91,559,1250.93Z"/><path class="cls-3" d="M142.28,1160.31l1725.47,10c31.06.18,57.76,22.68,64,54l6.19,30.85c4.91,24.46-22.93,46.21-58.83,46L89.58,1288.25c-42-.3-69.76-30-52.73-56.43l13.69-21.22C70.92,1179,105.41,1160.1,142.28,1160.31Z"/><path class="cls-4" d="M827.07,194.57C809.82,285,730.91,815.56,1215.46,979c0,0,141.86-335.89-375.61-788.88A7.79,7.79,0,0,0,827.07,194.57Z"/><path class="cls-5" d="M869.85,277.4c5.1,30.49,11.48,60.81,18.46,91s14.73,60.12,23.2,89.89c17,59.51,36.74,118.25,60.29,175.45s50.93,112.87,84,165c8.22,13.07,16.94,25.82,26,38.32s18.51,24.69,28.45,36.47a497.7,497.7,0,0,0,65.39,65.09h0a2.91,2.91,0,0,1-3.69,4.49h0A503.37,503.37,0,0,1,1106.13,877q-15-17.91-28.53-36.9c-9-12.64-17.76-25.51-26-38.69-33-52.65-60.22-108.72-83.64-166.14s-42.92-116.43-59.64-176.13Q895.82,414.37,885.51,369c-6.86-30.23-13.11-60.59-18.09-91.22a1.23,1.23,0,0,1,2.42-.4Z"/><path class="cls-6" d="M2014.94,709.18c.83-5.41-7.75-9.43-11.55-5.42-36.8,38.78-137.59,137.32-239.19,168.56-165.42,50.85-319.45,183.58-281.44,303.89C1482.76,1176.21,1925.19,1298,2014.94,709.18Z"/><path class="cls-5" d="M1973.86,769.51c-.86,1.49-1.72,2.62-2.57,3.9l-2.62,3.7c-1.78,2.44-3.54,4.88-5.35,7.3q-5.4,7.26-11,14.4c-7.38,9.54-15,18.9-22.63,28.24q-23.09,27.87-47.62,54.51a1336.06,1336.06,0,0,1-103.5,101.22c-18.16,15.91-36.95,31.1-56.1,45.81L1708,1039.43c-2.4,1.83-4.87,3.57-7.34,5.31l-7.39,5.24-7.39,5.23c-2.48,1.73-5,3.37-7.51,5.06-5,3.34-10,6.76-15.1,10q-30.55,19.5-62.71,36.27c-10.87,5.28-21.63,10.77-32.76,15.46-11,5.09-22.32,9.23-33.54,13.64a.7.7,0,0,1-.89-.39.69.69,0,0,1,.38-.88h0a708.64,708.64,0,0,0,65.48-30.32q31.79-17.11,62-36.84c20-13.3,39.74-27.13,58.82-41.8s37.62-30,55.82-45.74,35.84-32.13,53.12-48.89l12.88-12.65,12.7-12.84c8.4-8.61,16.78-17.26,25-26.06q24.7-26.36,48.1-53.89c7.78-9.19,15.52-18.42,23-27.82q5.65-7,11.19-14.17c1.85-2.37,3.66-4.78,5.49-7.17l2.69-3.62c.85-1.2,1.81-2.48,2.5-3.58l.1-.16a.68.68,0,0,1,1.16.69Z"/><path class="cls-7" d="M1836,320.06a6.29,6.29,0,0,0-12.18-.8c-19.09,60.33-74.11,216.94-153.5,298.4C1541,750.28,1450.69,969.58,1526.81,1087.22,1526.81,1087.22,1963.18,1021.71,1836,320.06Z"/><path class="cls-5" d="M1820.71,406.53c-.23,1.9-.58,3.55-.88,5.29l-1,5.16-2.11,10.27c-1.45,6.85-3,13.67-4.5,20.5q-4.68,20.44-9.81,40.79c-6.86,27.13-14.42,54.07-22.41,80.88s-16.61,53.44-25.81,79.87l-3.43,9.91-3.56,9.87c-2.41,6.58-4.69,13.19-7.2,19.72l-7.41,19.64-7.7,19.53c-20.81,52-44.35,102.88-71.42,151.91-1.65,3.09-3.39,6.13-5.16,9.15L1643,898.1l-5.27,9.08c-1.8,3-3.67,6-5.5,9-3.71,5.94-7.29,12-11.11,17.82l-11.58,17.52a743.33,743.33,0,0,1-51.14,66.57.71.71,0,0,1-1.08-.91h0a794.13,794.13,0,0,0,49.78-67.28l11.36-17.58c3.75-5.88,7.25-11.92,10.89-17.87,1.79-3,3.63-6,5.38-9l5.16-9.11,5.16-9.11c1.73-3,3.44-6.06,5.05-9.16l9.88-18.45c3.26-6.17,6.34-12.43,9.52-18.64,1.57-3.12,3.18-6.21,4.71-9.35l4.54-9.43,4.53-9.44c1.52-3.14,3-6.29,4.44-9.47,11.81-25.3,22.61-51,33.16-76.9,20.89-51.78,39.12-104.63,55.68-158q12.35-40,23.15-80.54,5.43-20.24,10.44-40.58c1.64-6.79,3.27-13.58,4.82-20.39l2.27-10.22,1.08-5.13c.32-1.69.7-3.46.93-5l0-.15a.71.71,0,0,1,1.4.18Z"/><ellipse class="cls-8" cx="1300.49" cy="501.69" rx="40.45" ry="326.7" transform="translate(773.23 1792.03) rotate(-88.87)"/><path class="cls-9" d="M1354.5,159.16l-97.88-1.93c-26.19,7.57-47.51,71.83-52.09,304l94.28,1.86Z"/><path class="cls-10" d="M1624.75,628.05l-1.44,72.84c299.09-320.3,259.83,216.5-6.21,314.91l-1.5,75.7C2003.66,887.43,1996.76,349.56,1624.75,628.05Z"/><path class="cls-11" d="M1298.36,546.59c-1.9-147.93,10-354.2-42.62-389.38l97.88,1.94c67,26.47,34.21,227.91,48.14,382.62Z"/><path class="cls-12" d="M1303.6,554.35c-1.91-147.93,11.93-359.42-40.73-394.6l97.89,1.93c67,26.48,34.21,227.92,48.14,382.63Z"/><path class="cls-13" d="M935.51,257.79c3.79,37.78,34.15,268.32,211.75,283.69,5.38.47,10.88-4,10.15-8.3-4.63-27.12-25.89-111.06-118-186.89-66.46-54.72-92.47-80.76-100.9-89.82C937.62,255.51,935.38,256.5,935.51,257.79Z"/><path class="cls-14" d="M1154.41,537.24c-58.21-42.95-104.46-96-133-133-23.22-30.06-50.65-71.13-49.88-77.05a5.05,5.05,0,0,1,10-.33c3.75,9.2,73.49,124.45,178.93,202.24a5,5,0,0,1-5.19,8.61A5.63,5.63,0,0,1,1154.41,537.24ZM981.53,328.51h0Zm0,0h0Z"/><path class="cls-15" d="M1227,523.34s-169.12,55.12-247.55-57.18c-71.71-102.67-89.12-216.48-91.58-235.24a1.68,1.68,0,0,0-2.48-1.25c-5.12,2.86-18.26,6.79-26.65-21-10.62-35.14-15.23-99.58,1.91-110.78s29.35,32.64,32.26,71.75,4.35,54.61,4.35,54.61S920.88,605,1227,523.34Z"/><path class="cls-16" d="M880,221.53a1.35,1.35,0,0,0-.35-2.59c-3.6-.39-7.12-2.94-9.41-6.83-2.13-3.61-3.07-7.82-3.93-12.18a311.59,311.59,0,0,1-5.75-66.49C860.67,126,861.67,117,868,113a1.35,1.35,0,1,0-1.44-2.28c-7.44,4.7-8.6,14.6-8.77,22.71a313.69,313.69,0,0,0,5.8,67.06c.9,4.6,1.9,9.05,4.25,13,2.72,4.62,7,7.66,11.44,8.14A1.37,1.37,0,0,0,880,221.53Z"/><path class="cls-17" d="M988.48,263.41s-17.38-9.35-10.91-51.07C983.27,175.63,992,151.93,1008,156s1.48,80.83-14,106.35c0,0,13.54,357.88,292.85,312.9C1286.86,575.22,1031.65,665.29,988.48,263.41Z"/><path class="cls-16" d="M987.68,249.71a1.16,1.16,0,0,0,.27-.14,1.35,1.35,0,0,0,.34-1.87c-7.85-11.36-3.56-50.19,8.5-76.94,1.1-2.43,6.67-7.55,7.89-7.56,1.49.24,1.76,3,1.57,4.8a63.78,63.78,0,0,1-5.92,21,1.35,1.35,0,1,0,2.43,1.16,66.47,66.47,0,0,0,6.17-21.87c.34-3.23-.47-7.19-3.85-7.75s-9.88,7.2-10.75,9.12c-5.63,12.5-10.06,29.15-11.84,44.54-1.1,9.55-2.11,26.81,3.58,35A1.36,1.36,0,0,0,987.68,249.71Z"/><path class="cls-18" d="M1496.19,573.17S1594.68,426.34,1758.6,386c142.53-35.1,143.87,56.91,70,32.36-21.76-7.24-47-24.59-67.85-21.16C1666.85,412.63,1574.77,479.85,1496.19,573.17Z"/><path class="cls-19" d="M1791.25,396.94a3.47,3.47,0,0,1,.94-6.63c22.7-2.82,70.54-5.88,77.11,17.1C1876.15,431.37,1816.5,407.84,1791.25,396.94Z"/><path class="cls-20" d="M1518,542s80.64-75.85,184-85.67c89.9-8.54,76.79,44.07,36.68,24.11-11.83-5.89-24.19-17.82-37.08-17.54C1643.56,464.11,1578.75,495,1518,542Z"/><path class="cls-21" d="M1719.77,465.18c-1.72-1.06-.59-3.74,1.56-3.71,13.9.23,42.76,2.34,43.18,16C1765,491.67,1733.11,473.43,1719.77,465.18Z"/><path class="cls-22" d="M1534.8,525.21s92.14-93.14,217.06-99.68c108.62-5.68,96.78,61.47,46.46,33.31-14.83-8.3-30.78-24.45-46.43-24.85C1681.38,432.15,1605,468.24,1534.8,525.21Z"/><path class="cls-23" d="M1774.09,438.07a2.57,2.57,0,0,1,1.61-4.7c16.91,1.11,52.16,5.55,53.74,23.2C1831.08,475,1791,449.52,1774.09,438.07Z"/><g class="cls-24"><path class="cls-25" d="M1416.42,551.69s-14.63-77.4,48.26-154.61c58.36-71.63,204-237.19,226.15-329.72,1-4.1,7.47-2.79,8.47,1.72,10.67,48.35,27.73,169.42-32,288.66C1590.26,511.49,1416.42,551.69,1416.42,551.69Z"/><path class="cls-14" d="M1680.07,153.5a179.2,179.2,0,0,1-2.73,28.9c-.69,4.78-1.75,9.5-2.73,14.22s-2.39,9.36-3.5,14a303,303,0,0,1-20.71,53.76l-3.13,6.48c-1.07,2.15-2.31,4.21-3.45,6.32-2.35,4.19-4.59,8.43-7,12.56l-7.73,12.14c-2.46,4.12-5.29,8-8.09,11.9s-5.52,7.85-8.4,11.69l-9.07,11.19c-5.88,7.52-12.44,14.77-18.72,22.13q-19.17,21.87-39,43.2c-13.19,14.23-26.59,28.28-40,42.41-6.71,7-13.43,14.09-20,21.28q-5,5.35-9.87,10.82l-4.89,5.45-4.75,5.61c-6.37,7.44-12.39,15.23-18.06,23.26a134.72,134.72,0,0,0-14.12,25.95,1.35,1.35,0,0,0,2.45,1.11l0,0a155.36,155.36,0,0,1,15.48-24.21c6-7.53,12.32-14.8,19-21.78,13.26-14.06,27.23-27.57,41-41.33l20.67-20.65c6.79-7,13.62-13.94,20.32-21s13.41-14.17,20-21.36,13.06-14.51,19.49-21.85c25.84-29.12,49.82-61.44,65.43-97.69a276.47,276.47,0,0,0,18.32-56,249.82,249.82,0,0,0,4.2-29.13,155.23,155.23,0,0,0-.13-29.32.17.17,0,0,0-.34,0Z"/></g><path class="cls-26" d="M1339,267.34c-8.31,37-52.19,265.39,111.51,336,5,2.14,11.6-.39,12.25-4.67,4.16-27.2,10.44-113.56-53.06-214.57-45.82-72.88-62.29-105.78-67.43-117C1341.72,265.83,1339.29,266.06,1339,267.34Z"/><path class="cls-14" d="M1458.64,601.55c-41.71-59.11-68.87-124.06-84.31-168.13-12.56-35.86-25.63-83.48-23-88.85a5,5,0,0,1,9.55,2.82c.67,9.92,30.51,141.28,106,248.34a5,5,0,0,1-7.64,6.53A4.6,4.6,0,0,1,1458.64,601.55ZM1360.38,349h0Zm0,0Z"/><path class="cls-27" d="M1582.52,417.49c8.4,18-171.76,176.9-183.11,168.51l-10-3.86c74.85-55,138.67-110.2,177.1-165.75Z"/><path class="cls-28" d="M1531.16,385.94c20.14,15.09,44,33,70.85,25.79,7.36-2,10.94-8.35,16.65-13.14a187.54,187.54,0,0,0,23.12-23.1c3.44-4.1,6.83-8.61,7.55-13.91s-2.22-11.47-7.47-12.47c-4.67-.89-9.53,2.38-14.06,1-3.23-1-5.35-4.19-6.25-7.45s-.86-6.7-1.25-10.06a37.71,37.71,0,0,0-4.69-14.22,7.23,7.23,0,0,0-2-2.47c-2.9-2-6.87.74-8.42,3.89-2.73,5.56-2.7,13.64-8.51,15.8-4.26,1.58-8.79-1.43-12.07-4.57-6.43-6.15-11.64-13.45-17.72-19.94s-13.37-12.33-22-14.35c-1.84-.43-4.08-.57-5.34.86s-.73,4,.16,5.82c2.28,4.79,5.74,8.91,8.54,13.42s5,9.75,4.23,15c-17.83-2.6-33.77-13.86-51.75-14.88-2.8-.16-5.93.07-7.84,2.12s-1.87,5.66-.57,8.31,3.53,4.7,5.54,6.86A54.22,54.22,0,0,1,1508.4,351c-3.37.07-7.54.69-8.6,3.89a6.44,6.44,0,0,0,.42,4.39c2,4.89,6.38,8.3,10.6,11.46Z"/><path class="cls-29" d="M1574.94,428.07s36.12-48.44,30.49-105.86c-4.9-49.93-34.71-39.9-18.39-18.89,4.81,6.19,13.27,12.35,14.53,19.46C1607.27,354.81,1596.08,392.13,1574.94,428.07Z"/><path class="cls-30" d="M1598.18,312.94a1.19,1.19,0,0,0,2-1.06c-1.67-7.64-6.13-23.41-14.28-22.91C1577.43,289.49,1591.8,306,1598.18,312.94Z"/><path class="cls-31" d="M1582.52,417.49s15.27-34.62,6.68-69.06c-7.48-29.94-22.94-19.74-11.94-9.08,3.24,3.14,8.49,5.77,9.87,10C1593.33,368.17,1590.73,392.58,1582.52,417.49Z"/><path class="cls-32" d="M1584.32,343.73c.53.44,1.27-.23,1-.92-1.66-4.46-5.62-13.52-10.07-12.1C1570.64,332.18,1580.14,340.37,1584.32,343.73Z"/><path class="cls-33" d="M1586,410.17s19.54-40.29,7.43-81.29c-10.52-35.65-30.81-24.2-16-11.19,4.36,3.84,11.38,7.15,13.29,12.14C1599.33,352.35,1596.39,381.07,1586,410.17Z"/><path class="cls-34" d="M1586.88,323.14a.88.88,0,0,0,1.33-1.05c-2.28-5.33-7.72-16.18-13.59-14.68C1568.51,309,1581.27,319,1586.88,323.14Z"/><path class="cls-35" d="M1588.58,398.69a71,71,0,0,1-.84-12.62c-.08-6.38-.33-12.85-2.13-19s-5.31-12-10.71-15.38c-2.84-1.8-6.92-2.73-9.33-.38-1.44,1.4-1.81,3.54-2.74,5.32-3,5.75-11.43,6.57-17.08,3.39s-9.15-9.05-12.37-14.67c-1.8-3.13-3.87-6.5-7.28-7.69-4.89-1.72-7.88-.24-10,4.54-1.24,2.81-2.77,6.13-5.8,6.61s-5.4-2.08-7.46-4.25a22,22,0,0,0-7-5.31,9.91,9.91,0,0,0-8.56.08c-3.81,2.1-5.13,7.17-4.22,11.42s3.58,7.88,6.17,11.38c12.33,16.61,24.81,32.41,41.45,45a128.84,128.84,0,0,0,25.58,15.22c2.3,1,26.76,10.09,27.47,8,4,.58,34.06,1.37,28-6.45-1.14-1.47-6.82-2.68-8.72-3.91a33.47,33.47,0,0,1-14.4-21.32Z"/><path class="cls-36" d="M1679.91,396.74c4.75-3.89,9.35-8.16,12.41-13.49a17.08,17.08,0,0,0,2.65-9.92c-.32-3.47-2.46-6.91-5.76-8-3.73-1.24-7.69.64-11.28,2.23a85.72,85.72,0,0,1-10.74,3.93c-1.88.55-3.93,1-5.74.29-5.94-2.41-2.52-10.26-.38-14,1.78-3.11,4.43-8.68-2.67-8.2-3.21.22-5.78,2.64-8.06,4.92l-34.5,34.6c-6.34,6.36-12.76,12.78-20.42,17.46-8.6,5.26-18.53,8.18-26.77,14-9.25,6.55,12.85,10.33,16,10.63a78.26,78.26,0,0,0,14.6-.11C1628.85,428.48,1657,415.52,1679.91,396.74Z"/><path class="cls-37" d="M1432.33,309.16c18.06,8.2-15.5,246.09-29.57,247.09l-10.08,3.54c21.1-90.47,33.71-173.89,26.8-241.08Z"/><path class="cls-38" d="M1471.82,294.12c-22.19,7.09-48.51,15.53-69.52.33-5.77-4.18-6.88-11.06-10.34-17.23-5.52-9.84-13.89-23.55-14.88-35.16-.66-7.64,6.9-16.1,13.39-18.7a48.23,48.23,0,0,1,30.9-1.63c8,2.28,14.32.42,22.28-1.76a102.87,102.87,0,0,1,47.16-1.72c7.85,1.55,11.61,6.26,7.38,14.47-.94,1.83-2.11,4-1.1,5.79a4.79,4.79,0,0,0,1.8,1.6c4.29,2.52,9.26,3.47,13.84,5.36s9.11,5.2,10.33,10.16c1.42,5.75-2.06,11.58-6,15.87C1504.92,284.61,1488,289,1471.82,294.12Z"/><path class="cls-39" d="M1417.77,316s32.49-33.37,31.88-88.58c-.53-48-29.78-40.91-16-19.54,4.07,6.31,11.63,12.88,12.25,19.76C1448.71,258.6,1440.91,283.44,1417.77,316Z"/><path class="cls-40" d="M1443.51,217.93a1.14,1.14,0,0,0,2-.84c-1-7.42-3.91-22.83-11.72-23C1425.67,193.85,1438,210.82,1443.51,217.93Z"/><path class="cls-41" d="M1419.91,316.31S1437.34,284.57,1432,251c-4.64-29.16-20.23-20.71-10.63-9.64,2.83,3.26,7.62,6.2,8.59,10.31C1434.31,270.19,1429.81,293.24,1419.91,316.31Z"/><path class="cls-42" d="M1427.74,246.14c.48.46,1.23-.12,1-.8-1.21-4.38-4.24-13.35-8.59-12.37C1415.66,234,1424,242.59,1427.74,246.14Z"/><path class="cls-43" d="M1423.84,309.62s22-36.79,13.83-76.88c-7.07-34.87-27.37-25.63-14.34-12,3.84,4,10.26,7.76,11.66,12.68C1441.34,255.6,1436.15,282.74,1423.84,309.62Z"/><path class="cls-44" d="M1431.89,226.72a.84.84,0,0,0,1.35-.89c-1.73-5.27-6-16.07-11.73-15.13C1415.55,211.69,1426.88,222.32,1431.89,226.72Z"/><path class="cls-45" d="M1431.82,288.11c1.65-3.77,3.24-7.57,5.2-11.17,6.38-11.77,16.6-21.1,27.91-28.27a76.28,76.28,0,0,1,21.76-9.84c12.38-3.15,25.41-2,38.14-.86,3.09.28,7.87-.29,10.11,1.91,2.92,2.86.58,6.36,1.38,9.37-1.14,4-3.9,7.31-6.6,10.48-12.81,15.1-25.7,29.41-42.39,40.41A122.62,122.62,0,0,1,1462,313.08c-2.25.82-26.17,8-26.73,5.91,0-.16-19.37-3-21.62-4.06-3.44-1.57-6.89-1.67-3.5-4.24,2.18-1.64,6.63-1.86,9.33-4a33.64,33.64,0,0,0,7.88-9.44A88.22,88.22,0,0,0,1431.82,288.11Z"/><path class="cls-46" d="M1361.64,240.32c-2.72-10.71-4.64-24.7,2.93-28.33,8.2-3.92,20.72.34,28.26,4.15a22,22,0,0,1,7.63,5.85,28.73,28.73,0,0,1,3.32,6.09,290.38,290.38,0,0,1,11.37,29.08c3.3,10.39,4.87,21.4,9.17,31.46,4,9.37,8.57,14.06,12.89,23.26.68,1.43,1.35,5.62,1,7.15-1.18,4.6-29.42-5.68-33.47-8.7-9.86-7.36-18-17.23-24.46-27.35a143.26,143.26,0,0,1-15.54-32.33C1363.91,248.29,1362.71,244.56,1361.64,240.32Z"/><path class="cls-47" d="M1471.59,258.82c12.24-.8,24.44,2.42,35.77,7.13,5.55,2.32,11.11,5,17.12,5.41a22.86,22.86,0,0,0,15.2-4.67c3.66-2.82,6.49-7,6.93-11.56.69-7.22-4.66-13.95-11.21-17.08s-14-3.41-21.29-3.41c-18.53,0-37.9,1.62-53.65,11.37-3.3,2.05-26.79,22.57-21.72,26.31,2.15,1.59,11.71-7.3,14-8.48A49.07,49.07,0,0,1,1471.59,258.82Z"/><path class="cls-48" d="M1408,229.5c-6.28-8.31-12.25-16.49-23.09-18.39a47.26,47.26,0,0,0-4.75-.53c-6.15-.43-12.76-1.24-18.42,1.57-2.93,1.45-5.73,3.86-6.2,7.09-.36,2.45.69,4.86,1.7,7.12,2,4.48,4.16,9.12,7.86,12.36,1.55,1.35,3.37,2.46,4.5,4.17,2,3,1.3,7.07-.24,10.32s-3.84,6.11-5.14,9.47c-3.5,9.08,2.41,20.57,11.84,23s20.2-2.92,28.27,2.28a38.62,38.62,0,0,1,4.58,3.91c5.58,5,12.53,8.21,19.37,11.31q-4.1-22.44-8.21-44.89a77.14,77.14,0,0,0-3.75-14.87A61.26,61.26,0,0,0,1408,229.5Z"/><path class="cls-49" d="M1486.4,471.75C1497,488.51,1338.31,668.9,1326,662l-10.36-2.58c67.31-64,123.66-126.81,154.78-186.76Z"/><path class="cls-50" d="M1446.82,474.25c21.09,7.66,46.1,16.78,66.9,2.95,5.71-3.79,7-10.38,10.6-16.18,5.69-9.27,14.26-22.14,15.67-33.28.92-7.33-6-15.75-12.19-18.5a46.38,46.38,0,0,0-29.67-2.75c-7.8,1.89-13.8-.14-21.38-2.54a99.16,99.16,0,0,0-45.32-3.45c-7.62,1.2-11.42,5.59-7.66,13.65.84,1.79,1.88,4,.84,5.61a4.54,4.54,0,0,1-1.8,1.47c-4.22,2.27-9,3-13.51,4.64s-9,4.66-10.34,9.38c-1.58,5.49,1.55,11.22,5.2,15.51C1415.32,463.83,1431.48,468.68,1446.82,474.25Z"/><path class="cls-51" d="M1498,497.31s-30-33.35-27.32-86.47c2.34-46.18,30.22-38.24,16.11-18.19-4.15,5.91-11.68,12-12.53,18.55C1470.41,440.94,1477,465.14,1498,497.31Z"/><path class="cls-52" d="M1477,402a1.1,1.1,0,0,1-1.92-.89c1.21-7.1,4.63-21.81,12.16-21.71C1495.05,379.5,1482.54,395.36,1477,402Z"/><path class="cls-53" d="M1495.94,497.58s-15.57-31.21-9.16-63.3c5.58-27.9,20.26-19.17,10.6-8.88-2.85,3-7.57,5.68-8.66,9.6C1483.83,452.64,1487.29,475,1495.94,497.58Z"/><path class="cls-54" d="M1491.07,429.74c-.48.42-1.19-.16-1-.81,1.33-4.17,4.58-12.68,8.74-11.58C1503.16,418.51,1494.77,426.47,1491.07,429.74Z"/><path class="cls-55" d="M1492.41,491s-19.75-36.24-10.39-74.53c8.13-33.28,27.32-23.62,14.26-11-3.85,3.72-10.17,7.07-11.71,11.75C1477.62,438.33,1481.58,464.65,1492.41,491Z"/><path class="cls-56" d="M1487.81,410.89a.81.81,0,0,1-1.27-.91c1.87-5,6.41-15.23,11.87-14.11C1504.11,397,1492.8,406.85,1487.81,410.89Z"/><path class="cls-57" d="M1485.54,470c-1.44-3.68-2.82-7.4-4.57-11-5.7-11.56-15.18-20.94-25.79-28.26a73.53,73.53,0,0,0-20.57-10.31c-11.8-3.5-24.38-2.9-36.67-2.27-3,.15-7.57-.58-9.81,1.45-2.92,2.65-.8,6.1-1.69,9,1,3.9,3.48,7.18,6,10.34,11.76,15,23.63,29.28,39.27,40.5a118.63,118.63,0,0,0,23.93,13.42c2.14.88,24.9,8.67,25.5,6.7.05-.15,18.76-2.18,21-3.08,3.37-1.38,6.7-1.34,3.53-3.95-2-1.66-6.31-2-8.82-4.19a32.16,32.16,0,0,1-7.23-9.39A83.78,83.78,0,0,1,1485.54,470Z"/><path class="cls-58" d="M1554.91,426.66c3-10.21,5.41-23.61-1.75-27.39-7.74-4.08-20-.46-27.35,2.93a21.25,21.25,0,0,0-7.57,5.33,27.22,27.22,0,0,0-3.42,5.74,278.29,278.29,0,0,0-12,27.56c-3.57,9.87-5.51,20.41-10,29.93-4.21,8.86-8.79,13.2-13.3,21.89-.7,1.36-1.5,5.36-1.18,6.85,1,4.47,28.53-4.34,32.54-7.1,9.77-6.7,18-15.9,24.59-25.4a138.17,138.17,0,0,0,16.18-30.52C1552.42,434.24,1553.72,430.7,1554.91,426.66Z"/><path class="cls-59" d="M1448.39,440.28c-11.76-1.24-23.63,1.4-34.71,5.51-5.43,2-10.88,4.42-16.67,4.55a22,22,0,0,1-14.46-5.07c-3.42-2.86-6-6.95-6.23-11.39-.39-7,5-13.25,11.43-16s13.65-2.74,20.63-2.47c17.83.69,36.41,3,51.2,13,3.1,2.09,24.93,22.74,19.91,26.14-2.13,1.45-11-7.47-13.21-8.7A47.2,47.2,0,0,0,1448.39,440.28Z"/><path class="cls-60" d="M1510.7,414.48c6.36-7.76,12.42-15.41,22.92-16.82a41.67,41.67,0,0,1,4.6-.33c5.93-.19,12.32-.71,17.67,2.21,2.76,1.5,5.36,3.93,5.69,7,.25,2.38-.84,4.66-1.91,6.79-2.12,4.24-4.34,8.62-8,11.6-1.54,1.24-3.34,2.24-4.49,3.85-2,2.81-1.52,6.75-.16,9.93s3.46,6,4.58,9.32c3,8.87-3.1,19.7-12.27,21.68s-19.33-3.58-27.29,1.12a37.49,37.49,0,0,0-4.56,3.59c-5.56,4.63-12.37,7.42-19.07,10.15l9.6-42.89a74.66,74.66,0,0,1,4.18-14.17A58.9,58.9,0,0,1,1510.7,414.48Z"/><path class="cls-61" d="M1041.41,1.62c-15.84,58.49-101.77,419.53,154.32,543.52,7.76,3.76,18.52.18,19.86-6.59,8.54-43.09,24.59-180.35-69.61-345.85-68-119.41-91.93-173-99.34-191.35C1045.85-.59,1042-.39,1041.41,1.62Z"/><path class="cls-14" d="M1211,541.5c-62.21-96.92-100.88-202.14-122.37-273.34-20.3-67.27-34.1-135.06-30.74-141.3a5.47,5.47,0,0,1,10.17,3.73c0,13.32,37.09,225.75,152.14,405a5.46,5.46,0,0,1-9.2,5.9ZM1067.51,132h0Zm0,0Z"/><path class="cls-62" d="M1209.14,505.92c-19.75,1.8-108.06-221.63-96.31-229.45l7-8.06c26.34,89.09,56.56,167.85,95.76,222.86Z"/><path class="cls-63" d="M1155.94,256.82c-21.89,7-47.86,15.32-68.59.32-5.69-4.12-6.79-10.91-10.19-17-5.45-9.72-13.71-23.24-14.69-34.7-.65-7.54,6.81-15.88,13.22-18.44a47.48,47.48,0,0,1,30.48-1.61c7.91,2.25,14.13.41,22-1.75a101.8,101.8,0,0,1,46.53-1.69c7.75,1.54,11.45,6.18,7.28,14.28-.93,1.8-2.09,4-1.08,5.71a4.69,4.69,0,0,0,1.78,1.58c4.23,2.48,9.12,3.42,13.64,5.29s9,5.13,10.2,10c1.4,5.68-2,11.42-6,15.66C1188.6,247.43,1171.87,251.74,1155.94,256.82Z"/><path class="cls-64" d="M1102.62,278.35s32.06-32.92,31.45-87.39c-.52-47.36-29.38-40.37-15.75-19.27,4,6.21,11.47,12.7,12.08,19.49C1133.14,221.78,1125.44,246.28,1102.62,278.35Z"/><path class="cls-65" d="M1128,181.64a1.12,1.12,0,0,0,2-.83c-1-7.31-3.85-22.51-11.56-22.71C1110.41,157.89,1122.57,174.63,1128,181.64Z"/><path class="cls-66" d="M1104.73,278.71s17.2-31.31,11.93-64.41c-4.58-28.78-20-20.44-10.49-9.52,2.79,3.22,7.52,6.12,8.47,10.17C1118.93,233.2,1114.49,256,1104.73,278.71Z"/><path class="cls-67" d="M1112.45,209.48c.47.45,1.22-.12,1-.79-1.19-4.32-4.18-13.17-8.48-12.2C1100.53,197.49,1108.8,206,1112.45,209.48Z"/><path class="cls-68" d="M1108.61,272.11s21.67-36.3,13.64-75.86c-7-34.39-27-25.28-14.15-11.83,3.79,4,10.12,7.65,11.51,12.51C1125.87,218.81,1120.75,245.59,1108.61,272.11Z"/><path class="cls-69" d="M1116.54,190.32a.83.83,0,0,0,1.34-.88c-1.71-5.2-5.94-15.85-11.58-14.92C1100.43,175.49,1111.61,186,1116.54,190.32Z"/><path class="cls-70" d="M1116.48,250.88c1.63-3.71,3.19-7.46,5.13-11,6.3-11.6,16.38-20.81,27.54-27.88a75.3,75.3,0,0,1,21.46-9.72c12.22-3.1,25.07-2,37.63-.84,3,.28,7.77-.29,10,1.88,2.88,2.83.57,6.27,1.36,9.25-1.12,3.95-3.85,7.21-6.51,10.34-12.64,14.9-25.36,29-41.82,39.87a121.54,121.54,0,0,1-25,12.76c-2.22.82-25.83,7.87-26.37,5.84,0-.17-19.11-3-21.34-4-3.39-1.55-6.8-1.65-3.45-4.18,2.15-1.63,6.55-1.84,9.2-3.94a33.1,33.1,0,0,0,7.78-9.32A85,85,0,0,0,1116.48,250.88Z"/><path class="cls-71" d="M1047.24,203.74c-2.68-10.57-4.58-24.38,2.89-28,8.09-3.88,20.45.33,27.88,4.1a21.59,21.59,0,0,1,7.53,5.76,28.2,28.2,0,0,1,3.27,6,284.28,284.28,0,0,1,11.22,28.7c3.25,10.24,4.81,21.11,9,31,3.94,9.25,8.46,13.87,12.72,22.95.66,1.41,1.32,5.54.94,7.05-1.17,4.54-29-5.6-33-8.58-9.73-7.26-17.74-17-24.13-27a140.87,140.87,0,0,1-15.33-31.89C1049.48,211.6,1048.29,207.92,1047.24,203.74Z"/><path class="cls-72" d="M1155.71,222c12.08-.79,24.12,2.38,35.3,7,5.47,2.28,11,5,16.88,5.33a22.57,22.57,0,0,0,15-4.6c3.61-2.79,6.39-6.87,6.83-11.41.68-7.13-4.6-13.76-11-16.85s-13.86-3.36-21-3.37c-18.28,0-37.4,1.6-52.94,11.22-3.25,2-26.42,22.27-21.43,26,2.12,1.56,11.56-7.21,13.87-8.37A48.49,48.49,0,0,1,1155.71,222Z"/><path class="cls-73" d="M1093,193.06c-6.19-8.2-12.08-16.27-22.78-18.14a45.57,45.57,0,0,0-4.68-.53c-6.07-.42-12.59-1.22-18.18,1.55-2.88,1.43-5.64,3.81-6.11,7-.35,2.41.68,4.79,1.68,7,2,4.43,4.1,9,7.75,12.19,1.53,1.34,3.33,2.43,4.44,4.13,2,3,1.28,7-.24,10.17s-3.79,6-5.07,9.35c-3.45,9,2.38,20.29,11.69,22.69s19.93-2.89,27.89,2.25a37.53,37.53,0,0,1,4.51,3.86c5.51,5,12.37,8.09,19.12,11.16l-8.1-44.29a76.54,76.54,0,0,0-3.7-14.67A60.3,60.3,0,0,0,1093,193.06Z"/><path class="cls-74" d="M1325.17,645.8c-19.75,1.8-108.06-221.64-96.31-229.46l7-8c26.33,89.08,56.56,167.85,95.75,222.86Z"/><path class="cls-75" d="M1263.86,396.21c-15.61,10.86-39.23,13-54.5,1.9-4.61-3.33-5.5-8.83-8.26-13.76-4.81-8.59-12.83-19.72-11.84-30.09.61-6.43,7.62-18.65,12.53-22.36,1.72-1.29,3.67-2.27,5.32-3.65,2.14-1.79,3.68-4.18,5.65-6.16a20.49,20.49,0,0,1,22.58-4c2.29,1.07,4.4,2.57,6.82,3.28,9,2.62,13.78-5.13,21.2-7.21,7.64-2.15,15.7,6.43,18.36,12.65,3.42,8,2.94,17,2.1,25.66-1.17,12-3.15,24.55-10.23,34.34A40.16,40.16,0,0,1,1263.86,396.21Z"/><path class="cls-76" d="M1221.72,415.29s26-26.66,25.47-70.77c-.42-38.35-23.79-32.68-12.76-15.61,3.26,5,9.29,10.29,9.79,15.79C1246.44,369.48,1240.21,389.32,1221.72,415.29Z"/><path class="cls-77" d="M1242.28,337a.91.91,0,0,0,1.62-.67c-.77-5.93-3.12-18.24-9.36-18.4C1228,317.75,1237.88,331.3,1242.28,337Z"/><path class="cls-78" d="M1223.43,415.58s13.93-25.36,9.66-52.16c-3.71-23.3-16.16-16.55-8.49-7.7,2.26,2.6,6.09,4.95,6.86,8.23C1234.93,378.73,1231.34,397.15,1223.43,415.58Z"/><path class="cls-79" d="M1229.68,359.52c.39.36,1-.1.84-.64-1-3.5-3.38-10.67-6.86-9.88C1220,349.81,1226.73,356.68,1229.68,359.52Z"/><path class="cls-80" d="M1226.57,410.24s17.55-29.4,11-61.43c-5.65-27.85-21.87-20.47-11.46-9.58,3.07,3.21,8.2,6.19,9.32,10.12C1240.55,367.08,1236.4,388.76,1226.57,410.24Z"/><path class="cls-81" d="M1233,344a.67.67,0,0,0,1.08-.71c-1.38-4.21-4.81-12.84-9.37-12.08C1220,332,1229,340.49,1233,344Z"/><path class="cls-82" d="M1215.6,411.09c3.18-2.41,5.19-2,7.88-5.35a48,48,0,0,0,6-10.63,61.15,61.15,0,0,0,5.16-22.71c.22-7.37-.87-15,1.72-21.93,3.48-9.27,13.87-7.43,19.41-14.28,3.29-4.06,2.79-9.86,3.48-15a11.48,11.48,0,0,1,1.13-4,9.94,9.94,0,0,1,5-4.18c8.41-3.58,18.73,1,23.63,8.75,5.94,9.35,4.44,19.13,1.93,29.06-2.74,10.89-3.8,21.18-9.56,31.17-6,10.43-13.25,20.35-22.2,28.47-2.56,2.33-21.28,11.28-23.49,7.27-.08-.13-15.48-2.42-17.28-3.24C1215.64,413.23,1212.88,413.15,1215.6,411.09Z"/><path class="cls-83" d="M1184.39,351.76a61.24,61.24,0,0,0-6.62-11.86c-3.14-4.4-7.1-9.15-6.24-14.5.61-3.82,3.69-6.87,7.17-8.55,6.42-3.1,14-2.31,20.9-.39a45.9,45.9,0,0,1,16.77,8.2c8.13,6.64,12.77,16.79,14.74,27.1,2,10.58.69,20.82.91,31.41.2,9.74,3.41,20.06,6.91,29.1,4.86,12.54-23.42,1.7-27.66-1.46-19.17-14.31-18.33-33.43-25.1-54.27C1185.64,354.92,1185.05,353.32,1184.39,351.76Z"/><path class="cls-84" d="M1173.92,481.83c-5.29,21.85,128.23,213.76,136,203.51l6.92-4.74c-55.07-66.37-102.32-133-131.6-200.2Z"/><path class="cls-85" d="M1139.82,460.55c17.24,17.49,41.58,40.8,68.61,30a263.61,263.61,0,0,0,53.89-29.12c6.68-4.68,13.39-10,16.75-17.43s2.16-17.53-4.69-22c-11-7.14-27.05,4.44-38.45-2.13-3.86-2.22-6.41-6.19-10-8.77-6.64-4.71-16-3.95-23.14,0s-12.34,10.55-16.85,17.32a8.88,8.88,0,0,1-3.21,3.39c-2.25,1.08-4.92.05-7.12-1.12-11.24-6-20-15.63-29.54-24.06s-20.88-16-33.61-16.44a8,8,0,0,0-4.87,1c-2.06,1.46-2.5,4.4-2,6.87s1.75,4.73,2.41,7.17a15.68,15.68,0,0,1-.67,10c-1.07,2.56-2.87,5.15-2.22,7.84a8.86,8.86,0,0,0,1.5,2.91,154.19,154.19,0,0,0,15.8,19.42C1127.78,451.11,1134.27,454.92,1139.82,460.55Z"/><path class="cls-86" d="M1195.15,508.14s-25.88-37.53-14.64-72.47c9.78-30.38,34.46-18.21,18-8.24-4.84,2.94-12.85,5.14-14.73,9.35C1175.3,455.77,1180.85,481.41,1195.15,508.14Z"/><path class="cls-87" d="M1187.81,431.27c-.81.4-2-.37-1.64-1.06,2.3-4.47,7.9-13.49,14.9-11.57C1208.37,420.64,1194.1,428.2,1187.81,431.27Z"/><path class="cls-88" d="M1189.77,500s-9.38-24.75,1.88-44.68c9.79-17.33,22-7.87,11.34-3.34-3.15,1.33-8,1.94-9.65,4.3C1185.88,466.91,1185.43,482.75,1189.77,500Z"/><path class="cls-89" d="M1196.39,453.34c-.51.17-1.07-.4-.77-.78,1.92-2.47,6.35-7.38,10-5.61C1209.51,448.79,1200.38,452.06,1196.39,453.34Z"/><path class="cls-90" d="M1187.56,494.72s-12.44-29.14,2.58-52.5c13.06-20.31,29.35-9.12,15.1-3.87-4.2,1.55-10.63,2.24-12.84,5C1182.45,455.79,1181.81,474.41,1187.56,494.72Z"/><path class="cls-91" d="M1196.46,439.91c-.68.19-1.43-.48-1-.92,2.56-2.9,8.47-8.64,13.38-6.54C1213.93,434.63,1201.77,438.42,1196.46,439.91Z"/><path class="cls-92" d="M1269.1,489.72c4.69-2.8,9.29-5.94,12.69-10.22,6.2-7.79,4.42-18.51-6.61-20.22-5.49-.85-11,1-16.26,2.8s-10.79,3.63-16.27,2.74c-4.51-.73-8.49-3.21-12.55-5.3-5.89-3-12.28-5.33-18.9-5.61s-13.5,1.63-18.35,6.15c-4.58,4.25-7,10.44-11.8,14.51-5.61,4.81-13.62,6-19.31,10.71-3.28,2.72-5.63,7.68-3.19,11.17a11.14,11.14,0,0,0,4.08,3.11c5.08,2.73,10.63,6.89,16.27,8.23,4.57,1.07,10.06,1.07,14.75,1.43C1220,510.85,1246.52,503.19,1269.1,489.72Z"/><path class="cls-93" d="M1189,478.71c-1.28-.87-2.53-1.78-3.72-2.76-8.44-6.92-14-17.49-23.94-22.06-3.36-1.55-7-2.29-10.53-3.49-12.06-4.09-21.74-13.29-29.49-23.39-2.29-3-4.55-6.14-7.84-8s-8-1.79-10.28,1.15c-3.1,3.89-.35,9.54,2.41,13.68,10.38,15.52,18.22,31.22,30.94,45.26A113.93,113.93,0,0,0,1157,495.89c1.88,1.2,22.17,12.42,23.08,10.65,5.57,1.67,17.2,4.52,22.62,1.85,8.47-4.18,2.71-16.81-2.19-21.39C1197.09,483.76,1192.93,481.39,1189,478.71Z"/><path class="cls-94" d="M1194.77,462.12c-6.7-6.93-17.27-8.09-25.73-12.72-5.23-2.87-9.59-7-14-11.07-12.86-11.76-27-22.86-43.67-27.89-3.84-1.16-8.49-1.81-11.44.91-2.14,2-2.67,5.25-2,8.08a19.16,19.16,0,0,0,4.3,7.5c5.34,6.41,11.93,11.63,18.46,16.81,12.48,9.88,25.19,19.89,40,25.71,9.18,3.6,19.41,5.75,26.51,12.59,5.36,5.15,8.22,12.14,12.67,18,1.46,1.92,4.11,6.48,6.85,4.17,2.28-1.93-.35-5.58-1-7.69C1202,485.27,1203.56,471.22,1194.77,462.12Z"/><path class="cls-95" d="M972.5,445.79c-5.65,19,196,149.56,206,139.58l9.28-5.28c-82.16-43.35-153.44-88.49-199.66-137.74Z"/><path class="cls-96" d="M1011.28,437.46c-18.22,13.09-39.82,28.66-63.59,21-6.53-2.11-9.6-8.08-14.59-12.7-8-7.38-19.74-17.44-24.12-27.78-2.87-6.8,1.54-16.8,6.71-21.11a46.41,46.41,0,0,1,27.81-10.7c8-.3,13.25-3.88,19.89-8.25a99.14,99.14,0,0,1,42.69-15.62c7.65-.91,12.5,2.28,11.07,11.06-.32,1.95-.74,4.31.71,5.63a4.48,4.48,0,0,0,2.13.92c4.68,1,9.51.43,14.27.8s9.89,2.05,12.49,6.23c3,4.84,1.56,11.22-.8,16.33C1038.77,418.88,1024.53,427.93,1011.28,437.46Z"/><path class="cls-97" d="M968.27,473.54s19.82-40.24,2.82-90.63c-14.78-43.81-39.46-28.61-20.44-13.14,5.6,4.56,14.48,8.34,17.1,14.45C979.53,411.8,979.78,436.88,968.27,473.54Z"/><path class="cls-98" d="M962.65,376.09a1.09,1.09,0,0,0,1.61-1.37c-3.09-6.51-10.37-19.74-17.59-17.6C939.14,359.35,955.49,371.22,962.65,376.09Z"/><path class="cls-99" d="M970.34,473.24s6.51-34.26-8.37-63.4c-12.94-25.34-24.7-13-12.61-5.67,3.56,2.14,8.83,3.41,10.93,6.88C969.79,426.7,972.53,449.16,970.34,473.24Z"/><path class="cls-100" d="M956.61,406.63c.57.28,1.09-.48.72-1-2.41-3.66-7.85-11-11.55-8.78S952.16,404.48,956.61,406.63Z"/><path class="cls-101" d="M972,465.94s9.16-40.24-10.23-74.55C944.85,361.57,929,376.07,945,384.68c4.71,2.54,11.7,4.05,14.46,8.14C971.88,411.25,975.21,437.65,972,465.94Z"/><path class="cls-102" d="M954.62,387.61a.82.82,0,0,0,1-1.23c-3.16-4.3-10.3-12.92-15.25-10.35C935.18,378.7,948.73,385.06,954.62,387.61Z"/><path class="cls-103" d="M972.85,443.86c.39-3.94.71-7.89,1.43-11.78,2.35-12.68,8.93-24.27,17.15-34.2a73.27,73.27,0,0,1,17-15.5c10.41-6.58,22.68-9.41,34.68-12.14,2.92-.67,7.12-2.61,9.83-1.27,3.53,1.76,2.43,5.65,4.06,8.17.15,4-1.4,7.86-2.92,11.57-7.24,17.65-14.8,34.59-26.8,49.64a118.68,118.68,0,0,1-19.39,19.41c-1.82,1.43-21.61,15.1-22.73,13.38-.09-.14-18.64,3-21,2.72-3.61-.42-6.81.52-4.46-2.85,1.5-2.15,5.52-3.67,7.35-6.43a32.31,32.31,0,0,0,4.41-11A85.87,85.87,0,0,0,972.85,443.86Z"/><path class="cls-104" d="M894.33,421c-5.68-9-11.61-21.25-5.75-26.83,6.34-6,19.08-5.86,27.12-4.61a21.15,21.15,0,0,1,8.73,3.08,27.73,27.73,0,0,1,4.85,4.59,281,281,0,0,1,19.08,23.26c6.11,8.53,10.84,18.15,17.77,26.09,6.45,7.39,12,10.32,18.74,17.46,1,1.11,2.9,4.75,3,6.27.29,4.56-28.64,3.56-33.24,2-11.23-3.81-21.61-10.43-30.56-17.78a137.7,137.7,0,0,1-23.86-25C898.78,427.61,896.57,424.55,894.33,421Z"/><path class="cls-105" d="M1000.55,405.19c11-4.38,23.12-5.07,34.89-4.12,5.78.46,11.68,1.3,17.29-.15a22,22,0,0,0,12.54-8.8c2.51-3.67,3.87-8.31,2.9-12.65-1.51-6.82-8.42-11.39-15.35-12.31s-13.88,1.06-20.52,3.21c-17,5.51-34.23,12.78-45.76,26.4-2.41,2.86-17.81,28.65-12.06,30.57,2.44.81,8.56-10.18,10.35-12A47.38,47.38,0,0,1,1000.55,405.19Z"/><path class="cls-106" d="M933.57,397.27c-8.23-5.75-16.13-11.46-26.63-10-1.52.22-3,.56-4.51.93-5.76,1.43-12,2.66-16.4,6.92-2.25,2.2-4.1,5.24-3.57,8.34.41,2.35,2.08,4.25,3.68,6,3.19,3.51,6.52,7.12,10.88,9,1.82.78,3.82,1.26,5.36,2.49,2.71,2.17,3.3,6.08,2.86,9.52s-1.7,6.75-1.89,10.21c-.5,9.36,8.33,18.13,17.69,17.54s17.64-8.69,26.58-6.33a36.7,36.7,0,0,1,5.36,2.22c6.61,2.94,13.93,3.78,21.11,4.59l-20.88-38.67a74.6,74.6,0,0,0-7.87-12.51A58.92,58.92,0,0,0,933.57,397.27Z"/><path class="cls-107" d="M981.18,1112.19,587.79,544l46.65-46.89L1007,887.63c60.26,47.62,66.86,181.88,3.46,229.25A20.56,20.56,0,0,1,981.18,1112.19Z"/><ellipse class="cls-108" cx="537.62" cy="469.21" rx="132.03" ry="47.16" transform="translate(-174.41 422.33) rotate(-37.35)"/><path class="cls-109" d="M629.4,604.11l-189-49C538,537,609,488,644.82,393l33.76,151.55C677,573.31,662.78,591.37,629.4,604.11Z"/><ellipse class="cls-110" cx="537.66" cy="467.4" rx="106.74" ry="36.99" transform="translate(-173.31 421.99) rotate(-37.35)"/><path class="cls-111" d="M593.63,417.27c.88,1.15,3.46.66,5.76-1.1s3.45-4.11,2.58-5.26-3.46-.66-5.76,1.09S592.76,416.12,593.63,417.27Z"/><path class="cls-112" d="M567.9,455.8c.88,1.15,3.45.66,5.76-1.1s3.45-4.11,2.57-5.26-3.45-.66-5.75,1.1S567,454.65,567.9,455.8Z"/><path class="cls-113" d="M471.12,510.75c.88,1.15,3.46.66,5.76-1.1s3.46-4.11,2.58-5.26-3.46-.66-5.76,1.1S470.25,509.6,471.12,510.75Z"/><path class="cls-114" d="M527.75,455c.87,1.15,3.45.66,5.75-1.1s3.46-4.11,2.58-5.26-3.46-.66-5.76,1.1S526.87,453.86,527.75,455Z"/><path class="cls-115" d="M558.88,434.24c.88,1.15,3.46.66,5.76-1.1s3.45-4.11,2.58-5.26-3.46-.66-5.76,1.1S558,433.09,558.88,434.24Z"/><path class="cls-116" d="M588.71,442.67c.88,1.15,3.46.66,5.76-1.1s3.46-4.11,2.58-5.26-3.46-.66-5.76,1.1S587.84,441.52,588.71,442.67Z"/><path class="cls-117" d="M536.09,498.44c.87,1.15,3.45.66,5.75-1.1s3.46-4.11,2.58-5.26-3.46-.66-5.76,1.1S535.21,497.29,536.09,498.44Z"/><path class="cls-118" d="M538.34,472.48c.88,1.15,3.45.66,5.75-1.09s3.46-4.11,2.58-5.27-3.45-.65-5.75,1.1S537.46,471.33,538.34,472.48Z"/><path class="cls-119" d="M507.89,495.72c.88,1.15,3.46.66,5.76-1.1s3.45-4.11,2.58-5.26-3.46-.66-5.76,1.09S507,494.57,507.89,495.72Z"/><path class="cls-120" d="M496.38,484.89c.87,1.15,3.45.66,5.75-1.1s3.46-4.11,2.58-5.26-3.46-.66-5.76,1.1S495.5,483.74,496.38,484.89Z"/><path class="cls-121" d="M495.72,518.13c.88,1.15,3.46.66,5.76-1.1s3.45-4.11,2.57-5.26-3.45-.66-5.75,1.1S494.84,517,495.72,518.13Z"/><path class="cls-122" d="M1013.43,1188.47q282.21,70.18,542.78,12.92a74.62,74.62,0,0,0,58.63-71.39l12.21-618.49c-150.12,51-486.67,43.79-653.26-12.89l-12.28,622.2A68.35,68.35,0,0,0,1013.43,1188.47Z"/></g></g></svg>