<svg xmlns="http://www.w3.org/2000/svg" xmlns:xlink="http://www.w3.org/1999/xlink" viewBox="0 0 71.16 71.16"><defs><style>.cls-1{fill:url(#Áåçûìÿííûé_ãðàäèåíò_26);}.cls-2{fill:#fff;}</style><linearGradient id="Áåçûìÿííûé_ãðàäèåíò_26" x1="10.42" y1="10.42" x2="60.74" y2="60.74" gradientTransform="translate(8.53 -6.85) rotate(12.47)" gradientUnits="userSpaceOnUse"><stop offset="0" stop-color="#3d6cc8"/><stop offset="0.31" stop-color="#c837ab"/><stop offset="0.35" stop-color="#d03b9c"/><stop offset="0.48" stop-color="#e7476d"/><stop offset="0.59" stop-color="#f64f51"/><stop offset="0.65" stop-color="#fb5246"/><stop offset="0.69" stop-color="#fb5a47"/><stop offset="0.76" stop-color="#fc7049"/><stop offset="0.85" stop-color="#fd934d"/><stop offset="0.95" stop-color="#fec452"/><stop offset="1" stop-color="#fd5"/></linearGradient></defs><g id="Layer_2" data-name="Layer 2"><g id="Ñëîé_1" data-name="Ñëîé 1"><circle class="cls-1" cx="35.58" cy="35.58" r="35.58" transform="translate(-6.85 8.53) rotate(-12.47)"/><path class="cls-2" d="M46.18,58.92H25A12.75,12.75,0,0,1,12.24,46.18V25A12.75,12.75,0,0,1,25,12.24h21.2A12.75,12.75,0,0,1,58.92,25v21.2A12.75,12.75,0,0,1,46.18,58.92ZM25,16.24A8.75,8.75,0,0,0,16.24,25v21.2A8.75,8.75,0,0,0,25,54.92h21.2a8.75,8.75,0,0,0,8.74-8.74V25a8.75,8.75,0,0,0-8.74-8.74Z"/><path class="cls-2" d="M35.58,47.46A11.88,11.88,0,1,1,47.46,35.58,11.89,11.89,0,0,1,35.58,47.46Zm0-19.76a7.88,7.88,0,1,0,7.88,7.88A7.88,7.88,0,0,0,35.58,27.7Z"/><path class="cls-2" d="M51.19,22.82a2.86,2.86,0,1,0-2.86,2.86A2.86,2.86,0,0,0,51.19,22.82Z"/></g></g></svg>