<svg xmlns="http://www.w3.org/2000/svg" xmlns:xlink="http://www.w3.org/1999/xlink" viewBox="0 0 427.78 95"><defs><style>.cls-1{fill:url(#linear-gradient);}</style><linearGradient id="linear-gradient" x1="45.55" y1="-46.48" x2="372.42" y2="142.23" gradientUnits="userSpaceOnUse"><stop offset="0" stop-color="#f9bf30"/><stop offset="0.41" stop-color="#de6ae9"/><stop offset="0.78" stop-color="#c418f0"/><stop offset="1" stop-color="#6a02d5"/></linearGradient></defs><g id="Layer_2" data-name="Layer 2"><g id="Layer_2-2" data-name="Layer 2"><path class="cls-1" d="M41.11,95c3-3.3,3.58-4.68,3.67-8.19V83.54a44.16,44.16,0,0,1-4.54.72,49.73,49.73,0,0,1-5.14.24,41.32,41.32,0,0,1-13.71-2.23,29.51,29.51,0,0,1-11.15-6.91,32.54,32.54,0,0,1-7.5-11.93A49,49,0,0,1,0,46.12a51.88,51.88,0,0,1,1.51-12.9A43.24,43.24,0,0,1,5.7,22.55a37,37,0,0,1,6.37-8.36A37.65,37.65,0,0,1,29.22,4.52,38.67,38.67,0,0,1,39,3.28a40,40,0,0,1,8.71.89,25,25,0,0,1,7,2.58,14,14,0,0,1,4.7,4.19,9.76,9.76,0,0,1,1.72,5.67,9.93,9.93,0,0,1-.51,3,10.06,10.06,0,0,1-1.48,2.9,7.48,7.48,0,0,1-2.45,2.15,6.76,6.76,0,0,1-3.41.83,4.18,4.18,0,0,1-3.41-1.31A8.9,8.9,0,0,1,48.19,21a26.54,26.54,0,0,1-.83-4.24,21.24,21.24,0,0,0-.92-4.25,8.15,8.15,0,0,0-2-3.25A5.2,5.2,0,0,0,40.64,7.9a12,12,0,0,0-4.25.92,17.78,17.78,0,0,0-4.78,2.87,30.23,30.23,0,0,0-4.76,5A33.07,33.07,0,0,0,22.71,24a50.31,50.31,0,0,0-2.9,9.76,63.15,63.15,0,0,0-1.1,12.39,75.84,75.84,0,0,0,1,13,40.86,40.86,0,0,0,2.56,9,18.91,18.91,0,0,0,3.65,5.75,15.57,15.57,0,0,0,4.28,3.2,14.4,14.4,0,0,0,4.38,1.37,29.3,29.3,0,0,0,4,.29A18.25,18.25,0,0,0,42,78.51a14,14,0,0,0,2.8-.83V50.53H35.32V45.75H68v4.78H60.21V75.78a19.07,19.07,0,0,1-15.53,18.8A26,26,0,0,1,41.11,95ZM92.46,32.25a13,13,0,0,0-3.39.43,12,12,0,0,0-2.69,1.08,6.37,6.37,0,0,0-1.77,1.42A2.38,2.38,0,0,0,84,36.66a1.19,1.19,0,0,0,.83,1.16l1.85.8a6.48,6.48,0,0,1,1.86,1.29,3.52,3.52,0,0,1,.83,2.56,4.62,4.62,0,0,1-.46,2.07,5.58,5.58,0,0,1-3.06,2.79,6,6,0,0,1-2.18.4,6.25,6.25,0,0,1-4.86-2,7.75,7.75,0,0,1-1.86-5.43,9.23,9.23,0,0,1,1.72-5.61,13.61,13.61,0,0,1,4.49-3.85,22.71,22.71,0,0,1,6.26-2.23,34.56,34.56,0,0,1,7-.72,34.2,34.2,0,0,1,8,.91,20.47,20.47,0,0,1,6.75,2.9,15.18,15.18,0,0,1,4.68,5.05,14.83,14.83,0,0,1,1.74,7.42V74.5a10.64,10.64,0,0,0,.06,1.08,3.3,3.3,0,0,0,.26,1.07,2,2,0,0,0,.65.81,2,2,0,0,0,1.24.32,2.72,2.72,0,0,0,1.8-.72,15.89,15.89,0,0,0,1.48-1.48l1.34,1.13c-.54.75-1.18,1.58-1.94,2.47a15.26,15.26,0,0,1-2.74,2.53,15.55,15.55,0,0,1-3.76,2,14,14,0,0,1-4.89.8,9.64,9.64,0,0,1-6-2,9.76,9.76,0,0,1-3.44-6.21A22.87,22.87,0,0,1,98,80.15a19.4,19.4,0,0,1-3.79,2.53,16.67,16.67,0,0,1-3.89,1.39,18.26,18.26,0,0,1-4,.43,15.85,15.85,0,0,1-5-.8,11.84,11.84,0,0,1-4.33-2.56A12.55,12.55,0,0,1,74,76.6a17.89,17.89,0,0,1-1.15-6.83,15,15,0,0,1,1.93-8,17.48,17.48,0,0,1,5.08-5.24A35,35,0,0,1,87,52.89q4-1.5,8.2-3.17A8.72,8.72,0,0,0,99.74,46a9.85,9.85,0,0,0,1.43-5,8.7,8.7,0,0,0-2.34-6.37A8.48,8.48,0,0,0,92.46,32.25ZM101,55.8a2.47,2.47,0,0,0-.86-2,3.38,3.38,0,0,0-2.21-.7,7.7,7.7,0,0,0-3.57.86,8.79,8.79,0,0,0-3,2.52,12.7,12.7,0,0,0-2,4.12,19.38,19.38,0,0,0-.75,5.67,23.83,23.83,0,0,0,.46,5.16,10,10,0,0,0,1.23,3.25,4.42,4.42,0,0,0,1.8,1.69,5,5,0,0,0,2.15.49,5.2,5.2,0,0,0,2.64-.73A7.91,7.91,0,0,0,99,74.24a9.46,9.46,0,0,0,1.45-2.53,7.69,7.69,0,0,0,.54-2.8Zm47.78-16.61a45.58,45.58,0,0,1,4.36-5.65,29.43,29.43,0,0,1,2.09-2.09,21.82,21.82,0,0,1,2.34-1.83,12.12,12.12,0,0,1,2.5-1.29,7.35,7.35,0,0,1,2.58-.48,5.65,5.65,0,0,1,4.3,1.63,6.42,6.42,0,0,1,1.56,4.6,21.17,21.17,0,0,1-.29,3.52,26.71,26.71,0,0,1-1.16,4.11h-1.5A5,5,0,0,0,164.06,39a4.84,4.84,0,0,0-3.44-1.11,9.17,9.17,0,0,0-3.28.62A20.2,20.2,0,0,0,154.2,40a29.83,29.83,0,0,0-2.91,2c-.91.72-1.74,1.4-2.5,2.05V78.91a8.07,8.07,0,0,1-.21,1.67,3.83,3.83,0,0,1-1.05,1.83,6.75,6.75,0,0,1-2.47,1.47,12.94,12.94,0,0,1-4.49.62,12.1,12.1,0,0,1-4.49-.67,7.08,7.08,0,0,1-2.5-1.58,4.05,4.05,0,0,1-1.07-1.89,7.11,7.11,0,0,1-.22-1.56V37.31a5,5,0,0,0-.72-2.72,2.67,2.67,0,0,0-2.45-1.15,3.39,3.39,0,0,0-1.56.32,8.22,8.22,0,0,0-1.4.91L125,33.33a32.63,32.63,0,0,1,2.77-2,21.61,21.61,0,0,1,3.31-1.74,22.49,22.49,0,0,1,3.82-1.24,18.7,18.7,0,0,1,4.3-.48,11.31,11.31,0,0,1,4,.61,7.83,7.83,0,0,1,2.68,1.62,7.35,7.35,0,0,1,1.64,2.23,11.86,11.86,0,0,1,.89,2.5,13.45,13.45,0,0,1,.35,2.42C148.78,38,148.79,38.65,148.79,39.19Zm53.54-8.39a56.51,56.51,0,0,0-2.84-10,33.69,33.69,0,0,0-4.39-8,20.17,20.17,0,0,0-5.8-5.32,13.5,13.5,0,0,0-7-1.94,13.11,13.11,0,0,0-3.89.54,15.31,15.31,0,0,0-5.16,2.66c-.56.45-1,.78-1.21,1l-1.4-1.89a17.8,17.8,0,0,1,3.14-3.11,21.09,21.09,0,0,1,4.06-2.48A25.52,25.52,0,0,1,182.47.59,20.85,20.85,0,0,1,187.34,0a27.5,27.5,0,0,1,14,3.47,28.88,28.88,0,0,1,10.05,9.81,48.25,48.25,0,0,1,6.08,15.32,90.09,90.09,0,0,1,2,19.94,60.57,60.57,0,0,1-1.8,15.59,33.56,33.56,0,0,1-5.13,11.26,21.48,21.48,0,0,1-8.09,6.83,24.52,24.52,0,0,1-10.73,2.28A25.5,25.5,0,0,1,185.32,83a20.8,20.8,0,0,1-7.74-4.81,25,25,0,0,1-5.67-8.73,35.13,35.13,0,0,1-2.21-13.25,35.25,35.25,0,0,1,1.91-12,27,27,0,0,1,5.14-8.9,22.07,22.07,0,0,1,7.47-5.54,21.67,21.67,0,0,1,9-1.9,16.23,16.23,0,0,1,3.27.29,14.81,14.81,0,0,1,2.53.73,10.62,10.62,0,0,1,1.88.94C201.42,30.15,201.9,30.48,202.33,30.8ZM203,54.45V52.06c0-1.2,0-2.58-.11-4.14s-.2-3.21-.37-5a32.64,32.64,0,0,0-.86-4.89,18.49,18.49,0,0,0-2.88-3,6.14,6.14,0,0,0-4.06-1.32c-2.79,0-4.85,1.83-6.15,5.48s-2,9.32-2,17a86.74,86.74,0,0,0,.46,9.24,37.78,37.78,0,0,0,1.4,7.21,12.54,12.54,0,0,0,2.42,4.67A4.56,4.56,0,0,0,194.38,79Q203,79,203,54.45ZM243.62,59a15.35,15.35,0,0,0,.51,3.74,21.84,21.84,0,0,0,1.48,4.05,21.05,21.05,0,0,0,2.39,3.9A18.35,18.35,0,0,0,251.28,74a15.78,15.78,0,0,0,4.11,2.31,13.87,13.87,0,0,0,4.95.86,13.4,13.4,0,0,0,3.49-.43,14,14,0,0,0,3-1.18,21,21,0,0,0,2.69-1.75c.86-.66,1.72-1.37,2.58-2.12L273.45,73a35.73,35.73,0,0,1-3.17,3.65,25.93,25.93,0,0,1-4.68,3.74,27.1,27.1,0,0,1-6.39,2.9,27.67,27.67,0,0,1-8.33,1.16,25.37,25.37,0,0,1-9.12-1.7,22.62,22.62,0,0,1-7.87-5.08,24.82,24.82,0,0,1-5.51-8.44,31,31,0,0,1-2.07-11.82,30.7,30.7,0,0,1,1.24-9A28.46,28.46,0,0,1,230.91,41a27.23,27.23,0,0,1,4.94-5.76,30.82,30.82,0,0,1,5.94-4.11,29.12,29.12,0,0,1,6.37-2.47,25,25,0,0,1,6.26-.83,24.75,24.75,0,0,1,6.94.86A15.39,15.39,0,0,1,266.28,31a9.58,9.58,0,0,1,2.93,3.36,8.76,8.76,0,0,1,1,4,7.54,7.54,0,0,1-1.45,4.54,13.34,13.34,0,0,1-3.87,3.52Zm10.8-10.91a8.77,8.77,0,0,0,1.16-.84,3,3,0,0,0,.72-1,5.29,5.29,0,0,0,.41-1.4,13.42,13.42,0,0,0,.13-2.07,17.49,17.49,0,0,0-.29-3,12,12,0,0,0-1-3.1,7.69,7.69,0,0,0-1.77-2.41,3.71,3.71,0,0,0-2.58-1,5,5,0,0,0-3.31,1.15,9.12,9.12,0,0,0-2.26,3,18.63,18.63,0,0,0-1.39,4.16,47.19,47.19,0,0,0-.78,4.71c-.18,1.57-.29,3.09-.33,4.54s0,2.68,0,3.68Zm57.9,8.81A75.53,75.53,0,0,0,311.7,46a22.81,22.81,0,0,0-1.64-6.18,6,6,0,0,0-2.26-2.8,5.28,5.28,0,0,0-2.52-.67,4.72,4.72,0,0,0-2.77.84,10.09,10.09,0,0,0-2.1,1.9,16.15,16.15,0,0,0-1.5,2.15,15.53,15.53,0,0,1-1.05,1.62V78.8a8.51,8.51,0,0,1-.22,1.7,3.92,3.92,0,0,1-1.05,1.88,6.44,6.44,0,0,1-2.47,1.5,12.9,12.9,0,0,1-4.49.62,12.13,12.13,0,0,1-4.49-.67,7.17,7.17,0,0,1-2.5-1.58,4.05,4.05,0,0,1-1.07-1.89,7.77,7.77,0,0,1-.22-1.56V37.31a5,5,0,0,0-.72-2.72,2.67,2.67,0,0,0-2.45-1.15,3.39,3.39,0,0,0-1.56.32,8.18,8.18,0,0,0-1.39.91l-1.13-1.34a29.71,29.71,0,0,1,2.77-2,21.5,21.5,0,0,1,3.3-1.74A22.79,22.79,0,0,1,284,28.33a18.7,18.7,0,0,1,4.3-.48A10.64,10.64,0,0,1,293.72,29a7.67,7.67,0,0,1,2.85,2.77,8.64,8.64,0,0,1,1.1,3.36c.12,1.16.19,2.14.19,2.93A29.42,29.42,0,0,1,302.37,33a22.33,22.33,0,0,1,2.29-1.88,19.58,19.58,0,0,1,2.68-1.64,15.44,15.44,0,0,1,3-1.15,12.18,12.18,0,0,1,3.25-.43,14.42,14.42,0,0,1,6.47,1.39,11.54,11.54,0,0,1,4.76,4.68,27.12,27.12,0,0,1,3,8.68,73.93,73.93,0,0,1,1,13.41,58,58,0,0,1-1.4,13.55,39,39,0,0,1-3.65,9.78,25.45,25.45,0,0,1-5.11,6.59,26.6,26.6,0,0,1-5.75,4,23.45,23.45,0,0,1-5.57,2,27.07,27.07,0,0,1-4.59.62l-.59-2.21a10.48,10.48,0,0,0,3-1.18,8.43,8.43,0,0,0,2.5-2.37,15.8,15.8,0,0,0,2-4,36.06,36.06,0,0,0,1.48-6,80.57,80.57,0,0,0,.91-8.52C312.22,65.07,312.32,61.25,312.32,56.87Zm41.5,2.1a15.35,15.35,0,0,0,.51,3.74,22.53,22.53,0,0,0,1.47,4.05,21.66,21.66,0,0,0,2.4,3.9A18.35,18.35,0,0,0,361.48,74a15.62,15.62,0,0,0,4.11,2.31,13.81,13.81,0,0,0,4.94.86,13.43,13.43,0,0,0,3.5-.43,14.17,14.17,0,0,0,3-1.18,21,21,0,0,0,2.69-1.75c.86-.66,1.72-1.37,2.58-2.12L383.65,73a35.73,35.73,0,0,1-3.17,3.65,25.93,25.93,0,0,1-4.68,3.74,27.28,27.28,0,0,1-6.39,2.9,27.69,27.69,0,0,1-8.34,1.16A25.36,25.36,0,0,1,352,82.7a22.53,22.53,0,0,1-7.87-5.08,24.82,24.82,0,0,1-5.51-8.44,31,31,0,0,1-2.07-11.82,31,31,0,0,1,1.23-9A29.15,29.15,0,0,1,341.1,41a27.56,27.56,0,0,1,4.95-5.76A30.82,30.82,0,0,1,352,31.15a29.12,29.12,0,0,1,6.37-2.47,26.15,26.15,0,0,1,13.2,0A15.23,15.23,0,0,1,376.47,31a9.39,9.39,0,0,1,2.93,3.36,8.65,8.65,0,0,1,1,4,7.54,7.54,0,0,1-1.45,4.54,13.34,13.34,0,0,1-3.87,3.52Zm10.8-10.91a8.77,8.77,0,0,0,1.16-.84,3,3,0,0,0,.72-1,5.29,5.29,0,0,0,.41-1.4,14.81,14.81,0,0,0,.13-2.07,16.6,16.6,0,0,0-.3-3,12,12,0,0,0-1-3.1A7.85,7.85,0,0,0,364,34.3a3.71,3.71,0,0,0-2.58-1,5,5,0,0,0-3.31,1.15,9,9,0,0,0-2.26,3,18.63,18.63,0,0,0-1.4,4.16,47.19,47.19,0,0,0-.78,4.71c-.18,1.57-.28,3.09-.32,4.54s-.05,2.68-.05,3.68Zm43.43-8.87a45.58,45.58,0,0,1,4.36-5.65,27.64,27.64,0,0,1,2.1-2.09,20.78,20.78,0,0,1,2.33-1.83,12.12,12.12,0,0,1,2.5-1.29,7.35,7.35,0,0,1,2.58-.48,5.65,5.65,0,0,1,4.3,1.63,6.42,6.42,0,0,1,1.56,4.6,21.17,21.17,0,0,1-.29,3.52,26.71,26.71,0,0,1-1.16,4.11h-1.5A5,5,0,0,0,423.32,39a4.84,4.84,0,0,0-3.44-1.11,9.17,9.17,0,0,0-3.28.62A20.2,20.2,0,0,0,413.46,40a29.83,29.83,0,0,0-2.91,2c-.91.72-1.74,1.4-2.5,2.05V78.91a8.07,8.07,0,0,1-.21,1.67,3.83,3.83,0,0,1-1,1.83,6.67,6.67,0,0,1-2.47,1.47,12.9,12.9,0,0,1-4.49.62,12.1,12.1,0,0,1-4.49-.67,7.08,7.08,0,0,1-2.5-1.58,4.05,4.05,0,0,1-1.07-1.89,7.11,7.11,0,0,1-.22-1.56V37.31a5,5,0,0,0-.72-2.72,2.67,2.67,0,0,0-2.45-1.15,3.39,3.39,0,0,0-1.56.32,8.63,8.63,0,0,0-1.4.91l-1.12-1.34a30.89,30.89,0,0,1,2.76-2,21.61,21.61,0,0,1,3.31-1.74,22.49,22.49,0,0,1,3.82-1.24,18.7,18.7,0,0,1,4.3-.48,11.31,11.31,0,0,1,3.95.61,8,8,0,0,1,2.69,1.62,7.49,7.49,0,0,1,1.63,2.23,11.86,11.86,0,0,1,.89,2.5,12.61,12.61,0,0,1,.35,2.42C408,38,408.05,38.65,408.05,39.19Z"/></g></g></svg>