<svg xmlns="http://www.w3.org/2000/svg" viewBox="0 0 1266.86 852.2"><defs><style>.cls-1{fill:#ce5c1d;}.cls-2{fill:#514335;}.cls-3{fill:#f4ab3a;}.cls-4{fill:#638e54;}.cls-5{fill:#83b56f;}</style></defs><g id="Layer_2" data-name="Layer 2"><g id="图层_1" data-name="图层 1"><path class="cls-1" d="M588.29,344.07C356.4,344.07,318.8,441.21,337.6,482L394,576S632.16,676.24,713.64,663.7,873.45,557.16,911.06,472.55,820.18,344.07,588.29,344.07Z"/><path class="cls-2" d="M862.15,484.55c4.89-12.37,2.88-19.2-7-25.07-4.1-23.15-33.17-31.75-50.05-15.52-17.37-17.75-35.83-14.44-56.86-11.44-28.49,4.06-20.22,4.69-47.27-9.32-28.28-14.65-37.92,2.61-62.58-1.26-26.19-4.11-30.63-25.51-64.41-14.49-12.13,4-15.52,13.35-29.6,14.95-13,1.49-25.31-8-37.6-8.67-32.56-1.69-31.65,18.93-54,30.14-29.95,15-45.17-4.63-65.1,38.09-8.19,17.56-17.94,47.22,3.13,56.4l72.07,81.47c4.3,36.55-8.44,50.58,35.26,71.3,49.62,23.54,98.93,61,155.69,57.33,51.6-3.34,96.85-21.23,128.33-61.7,20.79-26.75,49.92-51.06,68.21-79C866.74,582.82,890.18,506.39,862.15,484.55Z"/><path class="cls-3" d="M337.6,482,407,797.13S524.55,856.47,637.31,852C794,845.69,841,803.39,841,803.39l70.09-330.84S766.91,601,632.16,594.76,337.6,482,337.6,482Z"/><path class="cls-4" d="M638,360.77c-14.33,12.64-21.41,32.44-20.72,51.29.74,20,11.25,36.76,29.1,45.64,7.28,3.62,15,6.34,22,10.54,7.38,4.43,11.1,10.92,12.65,19.27,3.39,18.33-13.9,37.27-27.32,47.5-3.39,2.58-5.16,6.69-2.81,10.72,2,3.34,7.32,5.4,10.72,2.81,15.54-11.85,31-28.93,34.78-48.7,3.9-20.49-7.18-38.72-25-47.86-7.71-3.94-15.91-6.79-23.37-11.24s-11.75-12.54-13.85-20.68c-4.36-16.95,1.93-36.71,15-48.21,7.59-6.69-3.54-17.73-11.08-11.08Z"/><path class="cls-4" d="M455.31,373.1c3-9,14.45-13.2,22.69-15.54a55.57,55.57,0,0,1,30.92,0c18.46,5.46,26.72,25,33.83,41,8.88,20.09,17.46,39.6,37,51.43,19.3,11.66,43.53,13,65.07,8.05,52-12,79.94-64.33,113.82-100.38,14.79-15.73,31.58-30.17,48.43-43.64,17.34-13.86,36.84-27.82,58.49-33.87a43.67,43.67,0,0,1,24.46-.12,10.82,10.82,0,0,1,5.15,2.92c1.37,1.41-.85-1.33.19.26.24.36,1,2.07.21.16a11.22,11.22,0,0,1,.49,1.62c.32,1.27,0-1.47.06.82a16.15,16.15,0,0,1,0,1.84c-.14,2.12.31-1.67-.09.49a29.87,29.87,0,0,1-1.12,4.07,48.69,48.69,0,0,1-4.06,8.45,161,161,0,0,1-13.16,19.1c-9.12,11.74-19.92,22.89-27.23,35.9-7.14,12.72-2.13,26.3,4.7,38,7.93,13.59,18.54,25.42,26.31,39.11a44.44,44.44,0,0,1,3.58,7.58c1.34,3.82,1.36,3.93,1.23,7.25-.09,2.09.34-1.64-.06.39a14,14,0,0,1-.51,1.79c.54-1.64-.86,1.42-1.31,2.06,1.13-1.59-2.39,2.07-1.31,1.24a30.93,30.93,0,0,1-5.29,3.13c-8.61,4.22-19.49,5.6-29,5.61a36.3,36.3,0,0,1-10.91-1.55,25.32,25.32,0,0,1-7.31-3.83c-9.53-7.95-12-22.44-15.23-35.5-2.78-11.12-6-22.55-12.47-32.13-11.29-16.63-31.13-22-50.18-17.51-9.83,2.31-5.66,17.41,4.17,15.11,11.37-2.66,23.18-.56,31.11,8.52,3.87,4.42,6.67,11.13,8.65,17.18,4.66,14.21,6.51,29.22,13.24,42.72,7.59,15.25,22.35,22.37,38.93,22.66,16.3.29,41.88-3.81,50.46-20,7.06-13.26-1.21-28.34-8.48-39.53-8.49-13.06-19.06-25-25.77-39.1a35.6,35.6,0,0,1-2.43-7.56c-.47-2.27.11,1.57-.11-.68-.06-.67-.06-1.34-.06-2,0-.32.21-2.5-.06-.53a13.72,13.72,0,0,1,.48-2.11c.49-1.7-.62,1,.58-1.39.55-1.1,1.18-2.16,1.83-3.21,1.71-2.79,3.66-5.44,5.63-8.06,9.11-12.14,20.7-25.14,29.6-38.51,7.31-11,15.57-26,8.73-39-8-15.35-32.62-14.48-46.63-11.05-22.31,5.46-42.5,19.63-60.43,33.41A550.46,550.46,0,0,0,753.07,341c-19.24,18.81-34.66,41.12-52.55,61.13-16.08,18-34.7,34.29-58.53,40.5-20.12,5.24-42.46,2.7-59.52-9.62-8.52-6.15-13.42-15.27-18-24.42s-8.31-18.61-12.69-27.81c-9.65-20.3-24.35-37-47.67-40.28-22.46-3.16-55.78,4.11-63.9,28.43-3.21,9.61,11.93,13.7,15.11,4.17Z"/><path class="cls-4" d="M542.08,474.23c4.75-22.7,4.8-46.14-3.92-67.9-7.69-19.21-21.19-35.18-36.11-49.22-16.38-15.43-34.56-28.83-51.83-43.21-10.2-8.5-20.32-17.24-29.07-27.25-6.95-7.95-13-17.58-12.66-28.48.37-10.61,8.08-20.16,14.79-27.7,7.81-8.77,16.89-16.26,25.3-24.43,14.92-14.47,29.21-30.8,37.34-50.15a46.89,46.89,0,0,0,3.28-26.75c-1.8-9.66-8.47-17.25-16.08-23-15.48-11.67-38.47-16.3-57.47-13.79-17.23,2.27-32,12-33.86,30.35-1.09,10.93,3.46,22.28,8.13,31.89a66.07,66.07,0,0,0,19.46,23.64C424.32,189.65,444,192,462.06,194.52c20.24,2.89,41.59,6.6,57.75,20.17,17.28,14.5,16,36.55,10.43,56.38-5.87,21-16.23,40.39-22.19,61.33-4.64,16.35-3.77,33.49-3.67,50.3.09,16,.55,34.09-7.53,48.47-9.21,16.37-30.75,18.47-47.25,14.06-21.07-5.63-37.8-22-55.36-34-9-6.16-18.59-11.42-29-14.66-11.57-3.59-23.78-3.39-35.63-1.44-26.35,4.35-50,20-70.27,36.64s-37.8,36.24-53.84,57c-16.28,21-32.38,42.54-53.37,59.19a124.34,124.34,0,0,1-33.6,18.7c-8.76,3.3-21.49,7.9-29.89,1.38C79.8,561.16,83,548.18,86,539.11c3.16-9.75,8.54-18.27,17.35-23.68,18.29-11.23,44.08-1.71,61.52,6.62a177.43,177.43,0,0,1,28.27,17c8.9,6.51,16.52,14.59,24.74,21.91,18.39,16.37,38.68,30.86,62.46,38.15,25.51,7.82,52.7,5.26,77.85-2.58,50.79-15.83,91.17-52.57,137-78.06,25.64-14.26,52.48-24.41,82.2-23.18,14,.58,27.76,3.61,41.24,7.19,14,3.71,27.7,9.35,41.92,12,23,4.29,44.49-4.33,60.19-21.14,13.52-14.47,29.51-39.67,20.21-60.05-7.85-17.19-30-20.87-46.76-22-26.59-1.76-52.91,5.82-79.46,2.94-20.65-2.24-42.63-14.72-45.16-37-2.08-18.27,6.73-37.14,19.77-49.56,4.88-4.66-2.52-12-7.39-7.39-15.09,14.38-24.68,35.93-22.82,56.95,2.2,24.9,22.87,40.4,45.9,45.85,26.83,6.34,54.55-1.83,81.6-1.63,14.58.12,40.41,1.36,45.73,18.5,3.2,10.33-2.63,22.07-7.75,30.68-6,10-13.65,19.28-23.37,25.85a51.47,51.47,0,0,1-30.77,8.65c-13.84-.41-27.47-6.57-40.62-10.39-26.82-7.81-54.16-12.71-82-8-27.6,4.67-53.4,19.28-76.87,33.92-44.59,27.81-86.84,63.18-140.32,71.6-25.92,4.08-51.72-1.95-74.12-15.18-10.81-6.38-20.65-14.25-30.08-22.5-8.48-7.43-16.29-15.61-25.24-22.48-17.55-13.46-38.06-24.41-59.65-29.58-19.42-4.64-42.09-2.79-55.3,14-11.73,14.88-21.7,44.11-5,58.86,8.32,7.33,19.79,7,29.93,4.53,11.42-2.74,22.69-7.89,32.77-13.81,23-13.5,40.78-34,57.08-54.71s31.9-41.06,51-59.21c19.62-18.66,42.31-35.89,68.41-44.12,11.84-3.74,24.75-5.27,37-2.76,10.69,2.19,20.35,7.51,29.4,13.43,18.29,12,34.35,27.3,55.17,35,18.05,6.68,40.78,5.59,55.85-7.31,12.59-10.77,15.56-28.84,16.6-44.44,1.17-17.44-.56-35,1-52.39,1.68-19.29,11.1-37.52,18-55.35,7.48-19.45,14.67-41.17,9.53-62.12-5.3-21.58-25.65-34.39-45.47-41-18.55-6.16-38.33-6.56-57.27-10.9-8.81-2-17.16-5.19-24.59-10.4-8.55-6-14.28-15.13-18.44-24.51-4-8.9-6.86-19.31-3.35-28.79,2.52-6.77,9.76-10.56,16.24-12.48,17.95-5.32,40.12-.34,55.6,9.51,7.79,5,13.45,12.57,14,22,.48,9.19-3.52,18.14-7.93,25.95-10,17.77-25.11,32.69-40.15,46.25C415.62,222,395,241.41,398.44,265c1.62,11.15,8.2,20.63,15.32,29,8.58,10.12,18.93,18.77,29.08,27.26,17.25,14.43,35.36,27.85,51.83,43.2,13.62,12.71,26.2,27.23,33.42,44.61,8.26,19.87,8.27,41.55,3.92,62.35-1.37,6.58,8.7,9.37,10.07,2.78Z"/><path class="cls-5" d="M445.45,45.2c1.23,12.54-2.27,23.43-1.09,36.14,1.34,14.38,3.31,25.63,17.44,31.87,8.32,3.68,27.19,1,24,15.91-7,32.2-60.32-43.9-59.61.91.51,32.15,38,35.3,60.08,38.2,12.22,1.61,21.75,5.58,32.45,11.79-6.95,27.69-65.18-16.17-80.23-15-19.33,1.52-11.55,19.56-2.74,29.95,9.81,11.57,25.79,20.37,40,24.35,21.71,6.09,46.32-.67,67.09,10,17.33,8.89,12.12,18.41-5,19.93-15.06,1.33-29.33-6.3-43.15-10.09-13.35-3.67-65-27-56.88,1.47,5.81,20.22,36.63,31.28,53.95,36.25,33.78,9.7,87.63,30.94,117.67,1.05L610,280c51.05,8.65,86.64-57,68.21-101.84-5.52-13.43-16.42-60.16-35.38-36.42-9.11,11.41,1.12,27.42-7.57,38.42-13,16.54-19.78-2-18.23-15.12,2.77-23.47,22.95-48.21,16.6-72.62-9.37-36-34.57-10.92-41.8,12.21-3.19,10.2.68,35.94-14.13,37-21,1.45-13.62-28.57-10.24-38.48,4.07-11.91,32.31-92.57-10.71-78.82-22.31,7.14-10.37,37.79-14.61,53-2.53,9.08-11.09,19.65-21,9.88-8.13-8,.19-23.3.46-31.35s-.76-13.78-5.9-20.21c-7.05-8.83-13.05-5.63-21.33-6.6-20.12-2.36-33.66-5-50.63-16.71C438.06,22.29,444.4,34.51,445.45,45.2Z"/><path class="cls-5" d="M257,296.56c8.69,9.18,112.33,26.15,84.63,53.18-12.4,12.11-33.19-7.9-42.29-13.48C285,327.51,269,322.32,252.06,322.65c-18.15.36-40.93,3.49-55.55,15.15-16.84,13.44-21.06,29.38,1.32,32.76,17.45,2.64,35.89-4.92,53.22-.88,24.44,5.69,27,20.64.6,19.43-34.48-1.59-62.58-3.41-92.69,22.13-11.9,10.1-19.35,22.59-.5,28,14.63,4.16,31.34-10.66,46.51-8.36,9.4,1.43,16.49.88,16.33,12.82-.17,13.77-5.67,7.07-15.08,10.5C187.41,461,178.3,462.9,167,481.69c-9.64,16.09-12.61,29.82-7.26,47.85,7.78,26.26,15,39.9,14.77,66.57,27.67-14.38,41.53,9,67.44,15.21C288.36,622.45,277.53,572,284,546c6.86-27.66,15.1-15.59,17.44,4.94,1.81,15.83,1.39,32.74,5,48.22,9.33,40.32,42.05,6.22,45.53-19.57,2.13-15.8-22.28-93.78,10.85-88.67,25.92,4,6.32,75.71,14.89,95.07,7.08,16,22.87,12.68,34.68-1.85,10.72-13.18,6.1-29.87,3.86-45.64-2.43-17.21-24.55-88.4,11.25-80.4,32.34,7.24,18.67,69.6,17,90.76,17.27.59,36.83,4.93,47.59-12,7.86-12.35,2.6-40.16,3.31-55,.83-17.54,5.48-39,5-55-.61-19.95-17-31.24-23.86-41.87l-10-3.38c-3.21-1.81-24.93-5.69-30.07-11.55-8.05-9.18-3.15-23.58-6.14-35.43-6.13-24.23-24.44-44.58-47.38-54.22-23.72-10-52.4-13.16-77.24-15.47C290.64,263.55,229.73,267.77,257,296.56Z"/><path class="cls-5" d="M1076.74,182.19c16.07,1.26,52.47,6.18,49.32-22.59-2-18.43-31-29.95-21.24-52.56-9.3,2.45-15.62,7.51-26.32,8.09-10.39.56-18.65-2.18-28.28-3.78-18.12-3-42.69-5.93-49.93,14.77-3.48,9.95,2.76,50.08-21.14,38.47-23.38-11.36,8.89-35.87,6.68-48.91-24.23-9.38-41.12,19.7-42.86,39.82-1.08,12.42,4.64,23.67-8.75,28.42-17.05,6.05-17.35-9.38-15.8-21.65,1.2-9.42,10.07-27.33-4.11-32.5-12.55-4.59-23.45,14.63-27.75,23.67-11.37,23.85-2.85,45.81-3.51,70.42-26.92,7.88-15.92-41.22-18-51.1-6.92-32.74-32.94,15.74-35.61,27.37-4.62,20.11-4.93,50.31,5,68.87,5.42,10.11,41.53,35.27,47.11,24.08l-6,11.09c-2.63,26.73,44.26,29.33,61.72,30,26.73,1.08,47.46-1.24,70.31-13.93,42.48-23.59-30.68-12.33-37.84-22.79-19-27.76,50-6.42,55.9-5.71,32.51,3.94,47.09-33.3,11.81-39.49-9.29-1.63-34,2.71-26.94-13.2,5.11-11.54,33.83-10.52,43.72-8.77,12.77,2.26,26.4,13.36,39.69,4s9.38-24-2.63-30.6c-8.91-4.89-27.61-1.84-34.74-9.84C1044.26,180.15,1066.4,181.38,1076.74,182.19Z"/><path class="cls-4" d="M461.5,49.47c-17.32,4.92-32,20.43-47.94,25.26-2.23-17.29,26.89-21.49,31.18-37.4,5.79-21.5-17.67-29.06-33.1-19.23-8.93,5.69-22.5,37.19-34.3,36.53-13.4-.74,4.5-34.63,2.81-45.26C359,4,367.86,39.73,347.72,38.65c-1.06-21.51-3.49-40-30-38.57-17.42,1-41.86,20.54-56.4,10.62L266,17c.43,2.89,4.74,17.9,4.7,28.2,0,9.67-1,28.65,11.31,32.58,9.83,3.15,25.68-19.51,32.24-10.33,9.65,13.52-21.33,19-26.32,21.27-11.17,5-18.28,16.09-1.22,22,14.15,4.87,23.62-8.22,34.55-13.4s27.1-3.79,18.41,12.22c-5.78,10.65-23.81,9.54-32.94,13.64-27.21,12.23-9.48,35.21,14.1,33.28,20-1.63,24.21-29.36,45.2-31.09a68.84,68.84,0,0,1,1.57,11.9c-7.71,7.65-9.78,18.06-18.88,25.07-9.37,7.21-23.25,8.46-24.71,22.28-2.57,24.38,39.82,25.43,52.87,10.66,17.78-20.14,16.14-47.31,23.88-70.15,6.77-20,49.34-18.64,66.15-38.86C479.17,71.49,487.48,42.11,461.5,49.47Z"/><path class="cls-4" d="M30.64,487.53c7.26,16.48,24.65,28.82,31.65,44-16.81,4.61-25-23.65-41.36-25.69-22.09-2.75-26.32,21.53-14.45,35.45,6.88,8.06,40,17.12,40.94,28.9,1.12,13.37-34.93.34-45.22,3.49-2.39,21.73,31.77,8,33.5,28.06-21.16,4-39.15,9-34,35C5,653.89,27.81,675.37,20,691.15l5.55-5.52c2.8-.83,17.06-7.18,27.28-8.57,9.57-1.3,28.5-3,30.69-15.72,1.76-10.17-22.89-22.72-14.7-30.49,12.05-11.43,21.8,18.48,24.72,23.11,6.53,10.36,18.46,15.87,21.92-1.84,2.86-14.68-11.42-22.24-18.06-32.35s-7.52-26.32,9.54-19.93c11.35,4.25,12.75,22.26,18.08,30.73,15.89,25.25,36.18,4.5,31-18.58-4.39-19.55-32.44-19.9-37.06-40.45a68,68,0,0,1,11.56-3.2c8.65,6.57,19.25,7.18,27.45,15.22,8.44,8.27,11.6,21.84,25.49,21.37,24.5-.83,19.67-43,3.22-53.83-22.4-14.82-49.09-9.43-72.78-13.92-20.71-3.94-25.3-46.28-47.66-60.12C50,467,19.74,462.83,30.64,487.53Z"/><path class="cls-4" d="M807.44,306.91c-18.49-1.4-37.27,14.28-56.67,4.15-14.73-7.69-11.88-19.38,2.9-26.24,26.12-12.12,59.37,20.66,73.05-15.9,17.85-47.73-45.68-4.3-55.57-34.14,11.54-15.8,44.49-.24,62.14-9.7,16.94-9.08,34-48.74,14.22-61.49-7.39,11.9-24.71,20.76-36.76,10.59s1.81-23.19-4.22-39c-9.59-25.09-35-41.07-28.74-70.9-9.61,20.76-70.12,4.75-87.06,12.59-36.87,17.07,6,38.15,11.64,57-23.34,13-40.11-31.82-59.26-28.26-20.1,3.73-6,46.3,5.27,58.57,11.59,12.66,49.15,40.8,11.08,40.63-24.35-.11-36.94-22.53-43-42.73-17.42,16.38-23.76,14.8-19.66,41.81,2.56,16.86,12.11,28.5,16.21,44.75,2.67,10.56-.23,36.43-16.83,33.84-17.36-2.7-10.92-31.91-7-42.53-38.68-28.07-47.47,25.51-44.32,55.16,2.18,20.51,12.49,36.88,27,51.35,11.72,11.67,36.07,13.41,44,24.87l25.52.72c38,51.8,111.14,26.87,154.43-4C811.86,356.66,845.86,309.82,807.44,306.91Z"/><path class="cls-4" d="M779,59.48c-.52,1.66-.91,3.26-1.24,4.83A14.24,14.24,0,0,0,779,59.48Z"/><path class="cls-5" d="M1250.24,525.71c-6.86-10.57-8.77-21.84-15.66-32.58-7.81-12.16-14.73-21.24-30.16-20.28-9.07.56-24.61,11.61-28.59-3.11-8.6-31.8,73.75,11.23,52.51-28.23-15.24-28.31-50-13.85-70.92-6.27-11.59,4.19-21.88,5.05-34.23,4.47-6.57-27.79,65.31-15.63,78.13-23.61,16.46-10.25,1.25-22.69-11.35-27.85-14-5.76-32.27-6.22-46.73-3.22-22.08,4.59-40.82,21.91-64.16,22-19.48.08-19.23-10.76-4.69-20,12.76-8.11,28.94-7.9,43-10.89,13.53-2.89,70.14-6,49.81-27.48-14.45-15.28-46.9-10.92-64.58-7.37-34.45,6.93-92,12.85-104.95,53.22L996.06,393c-49.31,15.81-50.69,90.5-13.71,121.8,11.09,9.38,42.26,45.85,48.17,16.06,2.84-14.33-13.6-23.83-10.95-37.6,4-20.69,18.49-7.3,23.14,5,8.34,22.11,1.81,53.36,18.68,72.11,24.87,27.65,35.71-6.21,31.49-30.07-1.87-10.52-17.14-31.6-4.47-39.33,17.94-10.93,25.24,19.1,26.8,29.46,1.86,12.44,13.91,97.05,45.77,65.05,16.53-16.61-8.18-38.32-11.42-53.82-1.94-9.22.79-22.55,14.12-18.44,10.9,3.36,10.55,20.77,14,28s7,11.89,14.53,15.23c10.32,4.6,14.18-1,22-4,19-7.17,32.19-11,52.63-8.46C1267.34,542.65,1256.09,534.72,1250.24,525.71Z"/><path class="cls-4" d="M1063,513.54c-5.43-16.6-39.71-39.81-56-42.35-26.47-4.12-47.3,10.8-72.07,11.05-10.89.11-26.56-1.5-22-17.23,3.5-12.17,27.4-17.82,37.79-20.41A95,95,0,0,1,991.36,443c10.28,1.91,27.51,11.2,34.46-1.49,18.81-34.34-73.86-60.11-92.42-61.09-37.64-2-79.27,14.88-106.53,39.17l-23.5,3.13c-53.5,13.51-115.32,35.36-114.36,103.4.21,15.27-.65,61.48,15.63,65.83,31.6,8.45,27.44-38.15,36-53.3,15.65-27.6,58.3-28.23,47.42,11C780,578.86,757.82,599.86,753.32,631c-2,13.91-7.83,30.71,7.67,39.64,14.27,8.23,26.22.25,34.2-11,7.76-11,21.74-84.66,42.29-54.79,19.68,28.6-24.06,66.35-1.61,94,32.81,40.44,36.51-38.58,59.66-39.35,4.73,13.19-.81,27.77,6.11,40.49,7.31,13.45,24.59,24.09,39.59,25.1,30.47,2,57.42-23.31,89-14.33-3.34-19.62,2.11-42.64-2.81-62.43-5.88-23.66-21.94-28.41-39.41-40.73,15.77-20.73,52,23.52,55.11-15.71,1.81-22.7-35.37-39.94-53.35-44.2-8.47-2-31.48,1.1-24.74-12.11,5.46-10.7,28.71-8.46,38.84-7.92C1019.42,528.5,1074.66,549.08,1063,513.54Z"/><path class="cls-4" d="M633.49,754.27c11.56-14.68,11.93-58.9,4.54-74.87-12-25.94-37.63-35.57-52.52-57.4-6.54-9.6-14.39-24.47,2.3-29.81,12.9-4.12,32.09,13.73,40.55,21.42a101.16,101.16,0,0,1,25.51,35.13c4.39,10.26,6.31,31.07,21.73,29.7,41.72-3.71,9.79-101.27-.33-118.34-20.52-34.58-60.19-61.51-98-71.28l-16.7-19c-43.72-39.47-99.79-81.36-159.81-40.08-13.48,9.27-55.14,35.95-49.37,53,11.19,33.07,50.23,1.69,68.81.32,33.84-2.52,59.66,35,18.31,48.6-30.87,10.17-62.68,3-93.1,17.52-13.58,6.48-32,11.29-30.75,30.36,1.12,17.56,15.3,23.42,30.09,23.79,14.39.36,88.28-31,73.84,5-13.82,34.46-73.33,18.06-84.69,54.45-16.59,53.14,56,9.48,70.36,29.57-8.94,12-25.21,15.78-32.43,29.48C364.21,736.28,365,758,373,771.86c16.22,28.27,54.76,37.12,65.48,70.5,15.49-14.62,39.22-23.46,53.94-39.59,17.58-19.28,12.3-36.35,12.93-59.17,27.8,1.67,9.84,60.11,46.62,39.58,21.29-11.89,14.63-55.14,7.78-73.62-3.23-8.72-19.63-27.3-3.88-29.16,12.77-1.51,24.54,20.46,30.06,29.78C594.34,724.45,608.73,785.71,633.49,754.27Z"/><path class="cls-3" d="M450.36,790.86c-.8-28.32-1.21-56.73,2.19-84.91,3.6-29.79,12.75-58.27,26.16-85.06,12.43-24.81,29.26-47.2,47.54-68,7-7.9,14-15.7,20.64-23.88,4.88-6,11.43-13.21,13-21,.68-3.29-4.35-4.68-5-1.39-1.68,8.16-9.3,15.87-14.4,22-7,8.54-14.58,16.66-21.82,25-18.31,21.17-34.67,44.14-46.84,69.39a266.31,266.31,0,0,0-24.28,81.08c-3.82,28.71-3.23,57.83-2.42,86.71.1,3.36,5.32,3.37,5.22,0Z"/><path class="cls-3" d="M452.45,461.35c42.05-2.47,81.57,45.06,69.55,86-1,3.24,4.09,4.62,5,1.39,12.94-44.05-29.16-95.27-74.58-92.6-3.34.2-3.36,5.42,0,5.22Z"/><path class="cls-3" d="M529,550.29c12.31-6.94,26.27-13.55,40.65-14.11,9.33-.37,18.81,1.46,27.83,3.66,9.88,2.42,19.73,5.82,28.47,11.09,5.76,3.47,12.89,9.25,10.44,16.78-1,3.21,4,4.58,5,1.39,6.38-19.64-26-29.73-39.16-33.41-10.26-2.86-21.13-4.84-31.81-4.75-15.5.12-30.88,7.38-44.1,14.84-2.93,1.66-.3,6.17,2.64,4.51Z"/><path class="cls-3" d="M492.31,599.12c22.31-4.34,42.5,5,58.66,20a148.56,148.56,0,0,1,21.1,25.1c3,4.35,5.76,8.84,8.43,13.39,1.91,3.24,3.75,9.23,6.64,11.58a2.64,2.64,0,0,0,3.17.41l.07,0a2.66,2.66,0,0,0,1.2-3c-.87-2.93-3.79-7.32-6.84-8.24-3.23-1-4.61,4.08-1.39,5,1,.3,2.89,3.57,3.19,4.59l1.2-3-.07,0,3.17.41c-1.57-1.28-2.74-5.09-3.74-6.88-1.38-2.47-2.81-4.9-4.27-7.31-3-5-6.22-9.8-9.62-14.5a143.61,143.61,0,0,0-22.81-25.19c-16.73-14.32-37.54-21.76-59.48-17.49-3.3.65-1.9,5.68,1.39,5Z"/><path class="cls-3" d="M463.42,658.74c17.54,1.88,33.83,11.07,46.91,22.54,12.74,11.17,23.78,26.55,25.67,43.78.37,3.31,5.59,3.35,5.23,0-4-36.62-42.47-67.75-77.81-71.54-3.35-.36-3.31,4.87,0,5.22Z"/><path class="cls-3" d="M381.08,663.35c13.15-4.8,26.19-9.85,39.71-13.52A97.74,97.74,0,0,1,442.5,646c4.94-.2,11.46.15,14,5.15,1.51,3,6,.37,4.51-2.63-6-12.06-25.51-7.52-35.63-5.24-15.66,3.52-30.61,9.51-45.64,15-3.14,1.15-1.79,6.2,1.38,5Z"/><path class="cls-3" d="M371.68,570.92a201.15,201.15,0,0,1,67.12-15.29c21.77-1,49.09,3.91,51.77,30,.34,3.31,5.57,3.35,5.23,0-1.18-11.44-6.34-21.09-16.14-27.34-10.34-6.59-23.54-8-35.51-8-24.84-.08-51,6-73.85,15.6-3.06,1.27-1.72,6.33,1.38,5Z"/><path class="cls-3" d="M815.21,446c11.32,21.63,23.58,42.74,38.19,62.31,14.09,18.87,30.8,35.14,47.6,51.53,16.28,15.88,32.51,31.88,47.16,49.3,13.25,15.75,26.39,33.66,31.28,54,.79,3.28,5.83,1.89,5-1.38-4.64-19.28-16.42-36.12-28.6-51.39-14.26-17.88-30.58-34.05-46.9-50-16.78-16.41-33.78-32.46-48.28-51-16-20.43-29-43-41-66-1.56-3-6.06-.34-4.51,2.64Z"/><path class="cls-3" d="M731.47,513.32c15.62-33.12,60.87-51.73,95.75-41.09,3.23,1,4.6-4.06,1.39-5-37-11.26-85.07,8.33-101.65,43.5-1.42,3,3.08,5.68,4.51,2.63Z"/><path class="cls-3" d="M832.52,472c9.08-22.47,27.28-35.23,50.06-41.55,20.53-5.7,42.11-6.63,62.48-13,3.2-1,1.83-6-1.39-5-21.52,6.76-44.36,7.61-66,14-23.27,6.91-41,21.48-50.22,44.2-1.26,3.13,3.79,4.47,5,1.39Z"/><path class="cls-3" d="M786.83,608.89c10-19.29,16.47-40.2,26-59.74,8.41-17.33,20.49-37.95,41.4-40.89,3.33-.47,1.91-5.5-1.38-5-21,2.95-33.83,22.46-42.79,39.8-10.57,20.48-17.1,42.78-27.7,63.23-1.55,3,2.95,5.63,4.51,2.64Z"/><path class="cls-3" d="M860.81,662.4a205.83,205.83,0,0,1,5.87-59.29c4.17-16.39,12.05-37.49,29.81-43.15,3.2-1,1.83-6.07-1.39-5-18.55,5.92-27.36,25.78-32.43,43-6.06,20.65-8,43-7.08,64.45.14,3.35,5.36,3.37,5.22,0Z"/><path class="cls-3" d="M912.78,566.48c12.24-7.7,28.88-7.42,42.67-5.23a103.42,103.42,0,0,1,25.46,7.65c3.38,1.49,6.51,3.48,10,4.78,1.54.58,3.14,1,4.73,1.47.88.25,3.44,1.48,2.95.47V573l-.06-.31c-3.12,1.18-1.77,6.23,1.39,5a6.05,6.05,0,0,0,3.18-2.09,2.65,2.65,0,0,0,0-2.64c-.83-1.7-3.14-2.06-4.77-2.51a76.47,76.47,0,0,1-13.18-5.35,108,108,0,0,0-28.29-8.91c-15-2.65-33.37-2.61-46.68,5.76-2.85,1.79-.23,6.31,2.63,4.51Z"/><path class="cls-3" d="M870,523.14c34.4-17.71,73.2-23.07,111.48-23.14,3.37,0,3.37-5.23,0-5.23-39.23.08-78.89,5.73-114.11,23.86-3,1.54-.36,6,2.63,4.51Z"/><path class="cls-3" d="M644.62,350.65c1.94-20.22,14.11-37.72,26.08-53.42,12.43-16.32,27.74-31.76,37-50.23,10.42-20.75,22.32-41.15,26.84-64.2,4-20.36,1.55-41.93,8.66-61.75,1.14-3.17-3.9-4.53-5-1.39-7.08,19.75-5.08,41.38-8.67,61.75-2.18,12.37-7.06,24.16-12.38,35.46-5,10.59-10.18,21.47-16.17,31.53-20,33.48-57.62,61-61.57,102.25-.32,3.35,4.9,3.32,5.22,0Z"/><path class="cls-3" d="M575.93,299.23c16.79,19.56,41.2,37.67,67.65,39.93,3.35.29,3.33-4.94,0-5.22-25-2.14-48.16-20-64-38.4-2.2-2.56-5.88,1.15-3.7,3.69Z"/><path class="cls-3" d="M646,339.43c5.58,8.28,17.31,11.16,26.43,13.2,14.54,3.23,29.67,4.15,44.52,4.15,13.94,0,28.17-.91,41.77-4.13,6.83-1.62,18-4.56,19-13,.4-3.34-4.83-3.3-5.22,0-.68,5.67-14.41,7.81-18.42,8.65-12.52,2.63-25.51,3.23-38.26,3.23a206,206,0,0,1-40.2-3.58c-8-1.59-20.2-3.85-25.15-11.18-1.87-2.78-6.4-.17-4.51,2.63Z"/><path class="cls-3" d="M702.24,259.17c26-4.86,53.87-9.4,80.07-3.13,3.27.78,4.66-4.26,1.39-5-27.16-6.5-55.84-1.9-82.85,3.13-3.31.62-1.91,5.65,1.39,5Z"/><path class="cls-3" d="M626.59,215.16c9.51,10.05,23.6,14.49,35.86,20.11,12.82,5.88,26.54,13.81,26,29.74-.11,3.37,5.11,3.36,5.22,0,1.08-34.18-45.24-34.32-63.43-53.55-2.32-2.45-6,1.25-3.69,3.7Z"/><path class="cls-3" d="M727.29,207.84c6.67-13.42,25.86-13.8,38.77-13.79,14.05,0,28,2.46,42,2.55,3.37,0,3.37-5.2,0-5.22-15.67-.11-31.16-2.88-46.88-2.5-13.65.33-31.59,2.6-38.4,16.32-1.5,3,3,5.66,4.5,2.64Z"/><path class="cls-3" d="M666.36,139.81c8.14,11.94,19.83,21.93,30.86,31.09a160.43,160.43,0,0,0,18.95,13.85c3.82,2.32,8.87,5.37,13.55,4.92,3.32-.32,3.35-5.54,0-5.22-4.08.39-8.46-2.71-11.75-4.72a154.23,154.23,0,0,1-18-13.33c-10.31-8.57-21.45-18.05-29.07-29.22-1.88-2.77-6.41-.16-4.51,2.63Z"/><path class="cls-3" d="M38.35,657.7c.21-22.63,8.87-44.27,20-63.63,10.54-18.28,24.13-35.27,40.29-48.89,2.58-2.17-1.13-5.84-3.69-3.69-17,14.28-30.89,32.23-41.94,51.38-11.32,19.62-19.71,42-19.92,64.83,0,3.37,5.19,3.37,5.22,0Z"/><path class="cls-3" d="M290.22,32c17.58-3.3,33.81,15.22,43.94,27,11.8,13.67,21.47,28.91,31.44,43.91,1.86,2.79,6.38.18,4.51-2.64-10.71-16.11-21.19-32.34-34-46.94-11.35-13-28.29-29.9-47.31-26.32-3.3.62-1.9,5.65,1.39,5Z"/><path class="cls-3" d="M226.25,525.23c11.43-74.83,97.42-97,152.32-131.6,2.85-1.78.23-6.31-2.63-4.51-56.15,35.35-143,58.18-154.73,134.72-.5,3.3,4.53,4.71,5,1.39Z"/><path class="cls-3" d="M892.05,285.54c26.27-68.3,104.66-84.09,156-127.3,2.58-2.18-1.14-5.85-3.69-3.7-27,22.71-59.67,36.93-89.52,55.25-29.55,18.14-55.12,41.37-67.82,74.37-1.21,3.15,3.84,4.49,5,1.38Z"/><path class="cls-3" d="M1053.33,455a385.69,385.69,0,0,1,72.27,20.15c23.48,9.05,46.77,20.72,66,37.15,2.55,2.17,6.26-1.51,3.7-3.7-19.17-16.37-41.93-27.9-65.2-37.26A376.17,376.17,0,0,0,1054.72,450c-3.29-.58-4.7,4.46-1.39,5Z"/></g></g></svg>