<svg xmlns="http://www.w3.org/2000/svg" viewBox="0 0 71.16 71.16"><defs><style>.cls-1{fill:#02b9fa;}.cls-2{fill:#fff;}</style></defs><g id="Layer_2" data-name="Layer 2"><g id="Ñëîé_1" data-name="Ñëîé 1"><circle class="cls-1" cx="35.58" cy="35.58" r="35.58" transform="translate(-14.74 35.58) rotate(-45)"/><path class="cls-2" d="M13.58,52.53S30.9,63.1,46.92,50.07C57.65,41.35,57,27.26,57,27.26a19.11,19.11,0,0,0,4.58-4.93,13,13,0,0,1-2.28.82,16.79,16.79,0,0,1-2.92.5,11.83,11.83,0,0,0,2.37-2.19,11,11,0,0,0,1.69-3.11s-1.6.77-3.24,1.36a23.36,23.36,0,0,1-3.06.85,9.65,9.65,0,0,0-7.57-3.12c-4.61.36-7.65,2.84-9,6.28A9.2,9.2,0,0,0,37,29.5a24.92,24.92,0,0,1-10.89-2.84,33.74,33.74,0,0,1-9.39-7.55s-2.15,3.93-1,7.83a9.44,9.44,0,0,0,3.66,5.41,10.78,10.78,0,0,1-2-.19,10.92,10.92,0,0,1-2-.93s-.14,4,2,6.39A9.89,9.89,0,0,0,23,41a8.07,8.07,0,0,1-1.95.43,21.08,21.08,0,0,1-2.27-.09,9.29,9.29,0,0,0,2.92,4.47c2.1,1.54,6.15,2.37,6.15,2.37a17.41,17.41,0,0,1-6.39,3.41A33.41,33.41,0,0,1,13.58,52.53Z"/></g></g></svg>