<svg xmlns="http://www.w3.org/2000/svg" viewBox="0 0 71.16 71.16"><defs><style>.cls-1{fill:#f70000;}.cls-2{fill:#fff;}</style></defs><g id="Layer_2" data-name="Layer 2"><g id="Ñëîé_1" data-name="Ñëîé 1"><circle class="cls-1" cx="35.58" cy="35.58" r="35.58" transform="translate(-14.52 30.94) rotate(-39.71)"/><path class="cls-2" d="M56.08,25.61a5.39,5.39,0,0,0-5.33-4.53H20.41a5.39,5.39,0,0,0-5.33,4.53,68.69,68.69,0,0,0-.76,10,68.69,68.69,0,0,0,.76,10,5.38,5.38,0,0,0,5.33,4.53H50.75a5.38,5.38,0,0,0,5.33-4.53,68.69,68.69,0,0,0,.76-10A68.69,68.69,0,0,0,56.08,25.61Z"/><polygon class="cls-1" points="31.1 29.81 31.1 41.35 41.84 35.58 31.1 29.81"/></g></g></svg>